<svg width="1440" height="1024" viewBox="0 0 1440 1024" fill="none" xmlns="http://www.w3.org/2000/svg">
<g clip-path="url(#clip0_58_167)">
<rect width="1440" height="1024" fill="url(#paint0_linear_58_167)"/>
<g opacity="0.5">
<path d="M828.91 228.869C828.632 228.102 875.463 196.085 874.744 195.581C873.094 194.423 871.804 193.006 870.042 191.94C867.326 190.297 864.425 189.173 861.01 188.741C859.015 188.488 861.527 190.57 861.741 190.847C862.954 192.413 863.626 194.955 863.249 196.891C862.959 198.379 862.297 199.769 861.99 201.226C861.522 203.444 859.832 201.541 859.12 200.667C855.413 196.12 852.706 190.371 852.384 184.504C852.296 182.902 852.66 181.588 853.78 180.146C854.036 179.817 855.615 178.019 854.129 178.997C852.069 180.353 851.151 182.416 850.666 184.432C849.772 188.148 850.285 191.973 850.588 195.571C850.682 196.68 850.473 197.802 850.761 198.875C850.947 199.566 850.504 199.201 850.177 198.877C848.821 197.538 847.557 196.237 845.957 195.087C841.767 192.078 837.302 190.011 831.797 188.821C831.489 188.754 822.952 187.483 823.106 187.909C823.668 189.458 825.484 190.61 826.551 191.849C828.466 194.072 830.144 196.228 830.879 199.033C831.573 201.684 829.511 204.573 828.452 207.145C828.169 207.83 827.859 209.998 827.274 208.384C826.372 205.893 824.791 203.635 823.532 201.289C822.428 199.232 821.703 197.051 820.91 194.863C820.403 193.464 819.472 191.892 819.423 190.357C819.411 189.96 819.353 189.397 819.089 189.077C819.041 189.018 816.149 193.262 816.013 193.467C813.657 197.015 811.116 201.078 811.028 205.022C811.005 206.039 810.651 207.522 810.911 208.471C811.121 209.233 811.456 209.974 811.726 210.717C811.828 210.998 812.045 211.343 812.047 211.649C812.048 211.809 811.653 211.615 811.525 211.51C809.362 209.753 806.838 208.353 804.362 206.914C801.655 205.341 799.005 203.727 796.365 202.082C794.824 201.121 788.775 197.085 791.842 201.717C794.128 205.169 797.194 208.085 797.461 212.376C797.555 213.88 797.666 215.953 796.838 217.476C795.724 219.524 795.013 216.299 794.728 215.515C794.649 215.297 794.33 213.805 793.953 213.87C792.388 214.14 791.486 217.078 791.089 218.039C790.725 218.922 790.324 219.836 790.181 220.74C790.094 221.296 789.006 220.94 788.754 220.93C785.135 220.785 780.683 221.866 777.138 223.03C774.575 223.872 772.586 225.011 770.801 226.86C769.358 228.354 768.959 225.996 768.618 225.057C767.807 222.817 767.207 220.865 767.399 218.371C767.459 217.594 767.494 216.802 767.66 216.028C768.367 214.724 769.42 212.728 768.44 214.155C768.029 214.754 767.799 215.385 767.66 216.028C767.371 216.563 767.14 216.982 767.13 217.001C765.91 219.519 764.698 222.052 764.354 224.69C764.051 227.015 764.499 229.216 764.788 231.45C764.894 232.275 764.919 233.134 765.12 233.937C765.18 234.18 765.509 234.706 765.524 234.849L765.437 234.857C765.504 234.901 765.528 234.892 765.524 234.849L828.91 228.869Z" fill="#85AD95"/>
<path d="M828.91 228.869C828.632 228.102 875.463 196.085 874.744 195.581C873.094 194.423 871.804 193.006 870.042 191.94C867.326 190.297 864.425 189.173 861.01 188.741C859.015 188.488 861.527 190.57 861.741 190.847C862.954 192.413 863.626 194.955 863.249 196.891C862.959 198.379 862.297 199.769 861.99 201.226C861.522 203.444 859.832 201.541 859.12 200.667C855.413 196.12 852.706 190.371 852.384 184.504C852.296 182.902 852.66 181.588 853.78 180.146C854.036 179.817 855.615 178.019 854.129 178.997C852.069 180.353 851.151 182.416 850.666 184.432C849.772 188.148 850.285 191.973 850.588 195.571C850.682 196.68 850.473 197.802 850.761 198.875C850.947 199.566 850.504 199.201 850.177 198.877C848.821 197.538 847.557 196.237 845.957 195.087C841.767 192.078 837.302 190.011 831.797 188.821C831.489 188.754 822.952 187.483 823.106 187.909C823.668 189.458 825.484 190.61 826.551 191.849C828.466 194.072 830.144 196.228 830.879 199.033C831.573 201.684 829.511 204.573 828.452 207.145C828.169 207.83 827.859 209.998 827.274 208.384C826.372 205.893 824.791 203.635 823.532 201.289C822.428 199.232 821.703 197.051 820.91 194.863C820.403 193.464 819.472 191.892 819.423 190.357C819.411 189.96 819.353 189.397 819.089 189.077C819.041 189.018 816.149 193.262 816.013 193.467C813.657 197.015 811.116 201.078 811.028 205.022C811.005 206.039 810.651 207.522 810.911 208.471C811.121 209.233 811.456 209.974 811.726 210.717C811.828 210.998 812.045 211.343 812.047 211.649C812.048 211.809 811.653 211.615 811.525 211.51C809.362 209.753 806.838 208.353 804.362 206.914C801.655 205.341 799.005 203.727 796.365 202.082C794.824 201.121 788.775 197.085 791.842 201.717C794.128 205.169 797.194 208.085 797.461 212.376C797.555 213.88 797.666 215.953 796.838 217.476C795.724 219.524 795.013 216.299 794.728 215.515C794.649 215.297 794.33 213.805 793.953 213.87C792.388 214.14 791.486 217.078 791.089 218.039C790.725 218.922 790.324 219.836 790.181 220.74C790.094 221.296 789.006 220.94 788.754 220.93C785.135 220.785 780.683 221.866 777.138 223.03C774.575 223.872 772.586 225.011 770.801 226.86C769.358 228.354 768.959 225.996 768.618 225.057C767.807 222.817 767.207 220.865 767.399 218.371C767.509 216.948 767.535 215.474 768.44 214.155C769.821 212.144 767.163 216.933 767.13 217.001C765.91 219.519 764.698 222.052 764.354 224.69C764.051 227.015 764.499 229.216 764.788 231.45C764.894 232.275 764.919 233.134 765.12 233.937C765.199 234.253 765.729 235.045 765.437 234.857L828.91 228.869Z" stroke="#85AD95" stroke-width="3" stroke-linecap="round"/>
</g>
<g opacity="0.5">
<path d="M363.382 242.251C363.614 241.412 329.356 210.392 329.981 209.77C331.417 208.342 332.531 206.69 334.067 205.343C336.434 203.266 338.973 201.707 341.977 200.803C343.733 200.274 341.553 202.782 341.368 203.101C340.324 204.897 339.775 207.643 340.139 209.615C340.419 211.131 341.026 212.496 341.321 213.977C341.771 216.233 343.229 214.02 343.843 213.013C347.036 207.771 349.327 201.405 349.514 195.232C349.564 193.547 349.221 192.222 348.209 190.864C347.979 190.554 346.556 188.885 347.883 189.71C349.722 190.853 350.566 192.888 351.027 194.929C351.877 198.694 351.488 202.758 351.281 206.557C351.217 207.728 351.419 208.873 351.183 210.033C351.031 210.779 351.416 210.338 351.699 209.957C352.872 208.378 353.965 206.851 355.357 205.438C359.001 201.739 362.904 198.986 367.738 197.013C368.008 196.903 375.515 194.442 375.386 194.908C374.917 196.601 373.335 198.045 372.414 199.481C370.763 202.058 369.318 204.533 368.718 207.561C368.15 210.423 370.016 213.168 370.993 215.715C371.253 216.393 371.563 218.617 372.052 216.853C372.806 214.131 374.162 211.562 375.234 208.944C376.173 206.649 376.775 204.274 377.438 201.883C377.862 200.353 378.656 198.588 378.674 196.978C378.679 196.562 378.721 195.965 378.948 195.596C378.989 195.528 381.61 199.579 381.733 199.775C383.869 203.17 386.178 207.077 386.321 211.187C386.358 212.246 386.695 213.749 386.481 214.774C386.31 215.599 386.026 216.417 385.801 217.23C385.716 217.537 385.53 217.926 385.533 218.246C385.535 218.414 385.879 218.158 385.991 218.032C387.869 215.909 390.071 214.111 392.231 212.279C394.591 210.277 396.901 208.24 399.201 206.171C400.545 204.962 405.811 199.944 403.184 205.189C401.226 209.099 398.571 212.553 398.406 217.071C398.348 218.655 398.286 220.836 399.041 222.317C400.057 224.31 400.631 220.846 400.868 219.989C400.934 219.751 401.191 218.15 401.524 218.167C402.909 218.242 403.753 221.192 404.119 222.144C404.455 223.018 404.824 223.919 404.965 224.845C405.051 225.414 406.004 224.898 406.227 224.854C409.415 224.223 413.359 224.762 416.504 225.509C418.778 226.049 420.55 226.975 422.156 228.67C423.453 230.04 423.765 227.523 424.05 226.497C424.729 224.049 425.225 221.929 425.014 219.35C424.948 218.546 424.904 217.723 424.744 216.936C424.1 215.667 423.138 213.722 424.026 215.083C424.398 215.654 424.611 216.283 424.744 216.936C425.009 217.457 425.22 217.863 425.228 217.883C426.346 220.352 427.457 222.838 427.804 225.547C428.11 227.937 427.752 230.296 427.534 232.669C427.454 233.544 427.446 234.445 427.283 235.311C427.233 235.575 426.947 236.177 426.942 236.322L427.018 236.315C426.962 236.367 426.94 236.363 426.942 236.322L363.382 242.251Z" fill="#85AD95"/>
<path d="M363.382 242.251C363.614 241.412 329.356 210.392 329.981 209.77C331.417 208.342 332.531 206.69 334.067 205.343C336.434 203.266 338.973 201.707 341.977 200.803C343.733 200.274 341.553 202.782 341.368 203.101C340.324 204.897 339.775 207.643 340.139 209.615C340.419 211.131 341.026 212.496 341.321 213.977C341.771 216.233 343.229 214.02 343.843 213.013C347.036 207.771 349.327 201.405 349.514 195.232C349.564 193.547 349.221 192.222 348.209 190.864C347.979 190.554 346.556 188.885 347.883 189.71C349.722 190.853 350.566 192.888 351.027 194.929C351.877 198.694 351.488 202.758 351.281 206.557C351.217 207.728 351.419 208.873 351.183 210.033C351.031 210.779 351.416 210.338 351.699 209.957C352.872 208.378 353.965 206.851 355.357 205.438C359.001 201.739 362.904 198.986 367.738 197.013C368.008 196.903 375.515 194.442 375.386 194.908C374.917 196.601 373.335 198.045 372.414 199.481C370.763 202.058 369.318 204.533 368.718 207.561C368.15 210.423 370.016 213.168 370.993 215.715C371.253 216.393 371.563 218.617 372.052 216.853C372.806 214.131 374.162 211.562 375.234 208.944C376.173 206.649 376.775 204.274 377.438 201.883C377.862 200.353 378.656 198.588 378.674 196.978C378.679 196.562 378.721 195.965 378.948 195.596C378.989 195.528 381.61 199.579 381.733 199.775C383.869 203.17 386.178 207.077 386.321 211.187C386.358 212.246 386.695 213.749 386.481 214.774C386.31 215.599 386.026 216.417 385.801 217.23C385.716 217.537 385.53 217.926 385.533 218.246C385.535 218.414 385.879 218.158 385.991 218.032C387.869 215.909 390.071 214.111 392.231 212.279C394.591 210.277 396.901 208.24 399.201 206.171C400.545 204.962 405.811 199.944 403.184 205.189C401.226 209.099 398.571 212.553 398.406 217.071C398.348 218.655 398.286 220.836 399.041 222.317C400.057 224.31 400.631 220.846 400.868 219.989C400.934 219.751 401.191 218.15 401.524 218.167C402.909 218.242 403.753 221.192 404.119 222.144C404.455 223.018 404.824 223.919 404.965 224.845C405.051 225.414 406.004 224.898 406.227 224.854C409.415 224.223 413.359 224.762 416.504 225.509C418.778 226.049 420.55 226.975 422.156 228.67C423.453 230.04 423.765 227.523 424.05 226.497C424.729 224.049 425.225 221.929 425.014 219.35C424.894 217.877 424.846 216.341 424.026 215.083C422.774 213.164 425.198 217.816 425.228 217.883C426.346 220.352 427.457 222.838 427.804 225.547C428.11 227.937 427.752 230.296 427.534 232.669C427.454 233.544 427.446 234.445 427.283 235.311C427.219 235.651 426.764 236.55 427.018 236.315L363.382 242.251Z" stroke="#85AD95" stroke-width="3" stroke-linecap="round"/>
</g>
<ellipse cx="316.788" cy="183.346" rx="316.788" ry="183.346" transform="matrix(0.965926 0.258819 -0.258032 0.966136 -107.382 68)" fill="url(#paint1_linear_58_167)"/>
<ellipse cx="316.788" cy="183.346" rx="316.788" ry="183.346" transform="matrix(0.965926 -0.258819 0.259606 0.965715 715 204.981)" fill="url(#paint2_linear_58_167)"/>
<ellipse cx="229.232" cy="132.672" rx="229.232" ry="132.672" transform="matrix(0.987032 0.160521 -0.159717 0.987163 348.38 176)" fill="url(#paint3_linear_58_167)"/>
<ellipse cx="125.683" cy="72.7409" rx="125.683" ry="72.7409" transform="matrix(0.965926 -0.258819 0.259606 0.965715 609.969 244.332)" fill="url(#paint4_linear_58_167)"/>
<path d="M987 50.8353C988.707 53.4092 990.848 56.9119 993.66 58.4588C997.657 60.658 1002.07 61 1006.52 61C1011.43 61 1016.34 60.2809 1020.42 57.2824C1023.57 54.9686 1026.15 52.1684 1026.96 48.2235C1027.35 46.3134 1028.13 42.4516 1026.11 41.0941C1025.01 40.3536 1023.54 40.5786 1022.32 40.1529C1021.92 40.0138 1019.97 39.7601 1019.57 40.0824C1019.01 40.5274 1018.67 42.261 1018.67 42.9882C1018.67 45.6736 1023.17 45.7788 1025.02 45.7529C1029.57 45.6896 1032.02 43.7798 1034.97 40.4824C1038.07 37.0124 1040.4 33.6843 1040.87 28.9765C1040.97 27.9692 1041.18 26.8758 1040.67 25.9529C1040.52 25.6831 1040.35 25.303 1040.35 25" stroke="#85AD95" stroke-width="3" stroke-linecap="round"/>
<rect x="306" y="23" width="547" height="90" rx="45" fill="white"/>
<circle cx="249" cy="105" r="8" fill="white"/>
<circle cx="274" cy="78" r="17" fill="white"/>
<path d="M964.777 26.0301C964.406 26.9253 964.419 28.0213 964.384 29.0024C964.272 29.0468 964.158 29.1249 964.081 29.1984C963.582 29.6765 963.043 30.107 962.523 30.5631C962.206 30.8413 958.71 33.6941 959.019 34.0858C959.337 34.4869 960.348 34.6687 960.818 34.6782C961.769 34.6975 962.66 34.5184 963.579 34.2762C963.64 34.2603 964.579 33.9416 964.641 34.1599C964.807 34.7499 964.646 35.681 964.646 36.2809C964.646 37.7587 964.418 42.156 964.735 40.7134C964.806 40.3892 965.044 40.0229 965.179 39.7031C965.607 38.6936 966.111 37.7212 966.623 36.7517C966.893 36.2383 967.136 35.7139 967.396 35.1966C967.468 35.0551 967.607 34.781 967.752 34.6994C968.096 34.5059 968.748 34.8838 969.065 34.9638C970.518 35.3313 971.916 35.892 973.436 36.0059C973.647 36.0216 974.734 36.0553 974.796 35.7731C974.833 35.602 974.564 35.2019 974.482 35.0538C974.19 34.529 973.758 34.1053 973.358 33.668C973.073 33.3572 972.364 32.614 972.364 32.1605C972.364 31.8051 972.605 31.6367 972.793 31.3777C972.952 31.1585 973.024 30.911 973.133 30.6689C973.291 30.3159 973.599 30.0193 973.797 29.6851C974.196 29.0106 974.982 28.1515 975 27.326C975.014 26.6679 974.634 26.7338 974.058 26.7971C972.693 26.9472 971.519 27.4027 970.241 27.8549C969.89 27.9793 969.518 28.0991 969.206 27.9184C968.93 27.7591 968.857 27.4176 968.636 27.1938C968.057 26.6088 967.623 25.9462 966.999 25.4007C966.17 24.6767 965.219 24.9619 964.777 26.0301Z" fill="#85AD95"/>
<path d="M964.364 29.4417C964.432 28.3598 964.35 27.0617 964.777 26.0301C965.219 24.9619 966.17 24.6767 966.999 25.4007C967.623 25.9462 968.057 26.6088 968.636 27.1938C968.857 27.4176 968.93 27.7591 969.206 27.9184C969.518 28.0991 969.89 27.9793 970.241 27.8549C971.519 27.4027 972.693 26.9472 974.058 26.7971C974.634 26.7338 975.014 26.6679 975 27.326C974.982 28.1515 974.196 29.0106 973.797 29.6851C973.599 30.0193 973.291 30.3159 973.133 30.6689C973.024 30.911 972.952 31.1585 972.793 31.3777C972.605 31.6367 972.364 31.8051 972.364 32.1605C972.364 32.614 973.073 33.3572 973.358 33.668C973.758 34.1053 974.19 34.529 974.482 35.0538C974.564 35.2019 974.833 35.602 974.796 35.7731C974.734 36.0553 973.647 36.0216 973.436 36.0059C971.916 35.892 970.518 35.3313 969.065 34.9638C968.748 34.8838 968.096 34.5059 967.752 34.6994C967.607 34.781 967.468 35.0551 967.396 35.1966C967.136 35.7139 966.893 36.2383 966.623 36.7517C966.111 37.7212 965.607 38.6936 965.179 39.7031C965.044 40.0229 964.806 40.3892 964.735 40.7134C964.418 42.156 964.646 37.7587 964.646 36.2809C964.646 35.681 964.807 34.7499 964.641 34.1599C964.579 33.9416 963.64 34.2603 963.579 34.2762C962.66 34.5184 961.769 34.6975 960.818 34.6782C960.348 34.6687 959.337 34.4869 959.019 34.0858C958.71 33.6941 962.206 30.8413 962.523 30.5631C963.043 30.107 963.582 29.6765 964.081 29.1984C964.197 29.0872 964.398 28.9657 964.552 28.9657" stroke="#85AD95" stroke-width="2" stroke-linecap="round"/>
</g>
<defs>
<linearGradient id="paint0_linear_58_167" x1="720" y1="-84.5" x2="720" y2="267" gradientUnits="userSpaceOnUse">
<stop stop-color="#86AD95"/>
<stop offset="1" stop-color="white"/>
</linearGradient>
<linearGradient id="paint1_linear_58_167" x1="316.787" y1="-8.39323e-07" x2="308.637" y2="227.953" gradientUnits="userSpaceOnUse">
<stop stop-color="#DEF1F2"/>
<stop offset="1" stop-color="#F6F2ED"/>
</linearGradient>
<linearGradient id="paint2_linear_58_167" x1="316.787" y1="-8.39323e-07" x2="308.637" y2="227.953" gradientUnits="userSpaceOnUse">
<stop stop-color="#DEF1F2"/>
<stop offset="1" stop-color="#F6F2ED"/>
</linearGradient>
<linearGradient id="paint3_linear_58_167" x1="229.232" y1="-6.07346e-07" x2="223.334" y2="164.95" gradientUnits="userSpaceOnUse">
<stop stop-color="#DEF1F2"/>
<stop offset="1" stop-color="#F6F2ED"/>
</linearGradient>
<linearGradient id="paint4_linear_58_167" x1="125.683" y1="-3.32994e-07" x2="122.449" y2="90.4385" gradientUnits="userSpaceOnUse">
<stop stop-color="#DEF1F2"/>
<stop offset="1" stop-color="#F6F2ED"/>
</linearGradient>
<clipPath id="clip0_58_167">
<rect width="1440" height="1024" fill="white"/>
</clipPath>
</defs>
</svg>
