<svg width="1440" height="844" viewBox="0 0 1440 844" fill="none" xmlns="http://www.w3.org/2000/svg">
<g clip-path="url(#clip0_42_299)">
<rect width="1440" height="844" fill="url(#paint0_linear_42_299)"/>
<path d="M307 356C307 353.836 307.694 352.418 308.779 350.512C311.272 346.133 312.845 341.434 315.631 337.184C319.924 330.634 324.975 325.211 331.574 321.047C335.431 318.613 331.871 326.074 331.64 326.96C330.333 331.959 330.84 338.905 333.024 343.391C334.702 346.839 337.064 349.706 338.755 353.06C341.331 358.168 343.357 351.896 344.158 349.075C348.328 334.387 349.591 317.606 345.936 302.688C344.939 298.616 343.236 295.667 339.908 293.085C339.149 292.496 334.631 289.441 338.36 290.537C343.527 292.055 346.901 296.371 349.362 300.957C353.902 309.414 355.67 319.414 357.696 328.658C358.321 331.508 359.568 334.118 359.772 337.053C359.903 338.945 360.532 337.632 360.958 336.531C362.72 331.967 364.325 327.58 366.722 323.268C372.999 311.98 380.525 302.79 390.802 294.849C391.376 294.406 407.734 283.52 407.734 284.722C407.734 289.091 404.902 293.605 403.649 297.658C401.403 304.931 399.586 311.823 400.158 319.479C400.698 326.717 406.995 332.057 411.028 337.511C412.103 338.964 414.322 344.088 414.322 339.536C414.322 332.511 415.865 325.453 416.694 318.466C417.421 312.341 417.287 306.248 417.287 300.075C417.287 296.128 418.018 291.369 416.991 287.499C416.725 286.497 416.429 285.039 416.727 284.003C416.782 283.814 425.755 291.781 426.181 292.17C433.556 298.887 441.686 306.72 444.76 316.474C445.552 318.988 447.358 322.367 447.527 324.967C447.663 327.057 447.527 329.207 447.527 331.304C447.527 332.097 447.34 333.154 447.56 333.918C447.676 334.318 448.332 333.476 448.515 333.101C451.607 326.764 455.69 320.993 459.649 315.167C463.977 308.799 468.16 302.381 472.299 295.894C474.716 292.105 484.005 276.577 481.193 290.896C479.097 301.568 475.028 311.611 477.635 322.55C478.549 326.385 479.848 331.653 482.642 334.702C486.401 338.802 485.475 330.119 485.475 327.907C485.475 327.293 485.026 323.284 485.838 323.105C489.206 322.363 493.19 328.874 494.699 330.912C496.084 332.784 497.567 334.699 498.52 336.825C499.106 338.131 501.047 336.261 501.551 336.008C508.774 332.376 518.584 331.05 526.619 330.749C532.429 330.531 537.292 331.574 542.266 334.571C546.284 336.992 545.362 330.753 545.362 328.103C545.362 321.785 545.144 316.375 542.925 310.332C542.233 308.449 541.581 306.505 540.675 304.727C538.286 302.112 534.689 298.089 537.72 300.761C538.993 301.883 539.921 303.248 540.675 304.727C541.654 305.798 542.429 306.633 542.464 306.674C546.784 311.849 551.097 317.069 553.729 323.334C556.05 328.857 556.759 334.75 557.814 340.581C558.204 342.734 558.783 344.897 558.967 347.082C559.02 347.714 558.766 349.217 558.811 349.667L559 349.663C558.881 349.855 558.827 349.828 558.811 349.667L307 356Z" fill="#85AD95"/>
<path d="M307 356C307 353.836 307.694 352.418 308.779 350.512C311.272 346.133 312.845 341.434 315.631 337.184C319.924 330.634 324.975 325.211 331.574 321.047C335.431 318.613 331.871 326.074 331.64 326.96C330.333 331.959 330.84 338.905 333.024 343.391C334.702 346.838 337.064 349.706 338.755 353.06C341.331 358.168 343.357 351.896 344.158 349.075C348.328 334.387 349.591 317.606 345.936 302.688C344.939 298.616 343.236 295.667 339.908 293.085C339.149 292.496 334.631 289.441 338.36 290.537C343.527 292.055 346.901 296.371 349.362 300.957C353.902 309.414 355.67 319.414 357.696 328.658C358.321 331.508 359.568 334.118 359.772 337.053C359.903 338.945 360.532 337.632 360.958 336.531C362.72 331.967 364.325 327.58 366.722 323.268C372.999 311.98 380.525 302.79 390.802 294.849C391.376 294.406 407.734 283.52 407.734 284.722C407.734 289.091 404.902 293.605 403.649 297.658C401.403 304.931 399.586 311.823 400.158 319.479C400.698 326.717 406.995 332.057 411.028 337.511C412.103 338.964 414.322 344.088 414.322 339.536C414.322 332.511 415.865 325.453 416.694 318.466C417.421 312.341 417.287 306.248 417.287 300.075C417.287 296.128 418.018 291.369 416.991 287.499C416.725 286.497 416.429 285.039 416.727 284.003C416.782 283.814 425.755 291.781 426.181 292.17C433.556 298.887 441.686 306.72 444.76 316.474C445.552 318.988 447.358 322.367 447.527 324.967C447.663 327.057 447.527 329.207 447.527 331.304C447.527 332.097 447.34 333.154 447.56 333.918C447.675 334.318 448.332 333.476 448.515 333.101C451.607 326.764 455.69 320.993 459.649 315.167C463.977 308.799 468.16 302.381 472.299 295.894C474.716 292.105 484.005 276.577 481.193 290.896C479.097 301.568 475.028 311.611 477.635 322.55C478.549 326.385 479.848 331.653 482.642 334.702C486.401 338.802 485.475 330.119 485.475 327.907C485.475 327.293 485.026 323.284 485.838 323.105C489.207 322.363 493.19 328.874 494.699 330.912C496.084 332.784 497.567 334.699 498.52 336.825C499.106 338.131 501.047 336.261 501.551 336.008C508.774 332.376 518.584 331.05 526.619 330.749C532.429 330.531 537.292 331.574 542.266 334.571C546.284 336.992 545.362 330.753 545.362 328.103C545.362 321.785 545.144 316.375 542.925 310.332C541.657 306.882 540.523 303.232 537.72 300.761C533.446 296.994 542.346 306.533 542.464 306.674C546.784 311.849 551.097 317.069 553.729 323.334C556.05 328.857 556.759 334.75 557.814 340.581C558.204 342.734 558.783 344.897 558.967 347.082C559.039 347.939 558.546 350.396 559 349.663L307 356Z" stroke="#85AD95" stroke-width="3" stroke-linecap="round"/>
<path d="M103 261C103 259.197 102.43 258.015 101.539 256.427C99.4912 252.778 98.1989 248.862 95.9106 245.32C92.3836 239.861 88.2349 235.343 82.8141 231.872C79.6461 229.844 82.5699 236.062 82.76 236.8C83.8337 240.966 83.4175 246.754 81.6235 250.492C80.2448 253.365 78.3046 255.755 76.9153 258.55C74.7998 262.806 73.1357 257.58 72.4776 255.229C69.0522 242.989 68.0144 229.005 71.0165 216.574C71.8359 213.18 73.2346 210.723 75.9682 208.57C76.5915 208.08 80.3033 205.534 77.24 206.447C72.9961 207.712 70.2246 211.309 68.2024 215.131C64.4737 222.179 63.0211 230.512 61.3565 238.215C60.8432 240.59 59.8194 242.765 59.6518 245.211C59.5437 246.787 59.027 245.693 58.6776 244.776C57.2298 240.972 55.9115 237.316 53.9424 233.724C48.7866 224.317 42.6044 216.659 34.1624 210.04C33.6915 209.671 20.2541 200.6 20.2541 201.602C20.2541 205.242 22.5808 209.004 23.6094 212.382C25.4551 218.442 26.9474 224.186 26.4777 230.566C26.0335 236.597 20.8613 241.047 17.5482 245.592C16.6654 246.804 14.8424 251.074 14.8424 247.28C14.8424 241.426 13.575 235.544 12.8941 229.722C12.2971 224.617 12.4071 219.54 12.4071 214.396C12.4071 211.107 11.8069 207.141 12.6506 203.916C12.8689 203.081 13.1123 201.866 12.8671 201.003C12.8223 200.845 5.45159 207.484 5.10118 207.808C-0.956819 213.406 -7.6351 219.933 -10.16 228.061C-10.8109 230.157 -12.294 232.972 -12.4329 235.139C-12.5447 236.881 -12.4329 238.672 -12.4329 240.42C-12.4329 241.081 -12.2793 241.962 -12.46 242.598C-12.5549 242.932 -13.0943 242.23 -13.2447 241.917C-15.7844 236.637 -19.1383 231.828 -22.3906 226.973C-25.9456 221.665 -29.3815 216.318 -32.7812 210.912C-34.7666 207.754 -42.3968 194.814 -40.0871 206.747C-38.3655 215.64 -35.023 224.009 -37.1647 233.125C-37.9155 236.32 -38.9821 240.711 -41.2776 243.251C-44.3651 246.668 -43.6047 239.433 -43.6047 237.589C-43.6047 237.077 -43.2358 233.736 -43.9023 233.587C-46.6696 232.969 -49.9418 238.395 -51.1812 240.094C-52.3194 241.653 -53.5375 243.249 -54.32 245.021C-54.801 246.109 -56.396 244.551 -56.8094 244.34C-62.7426 241.314 -70.8014 240.208 -77.4012 239.957C-82.1735 239.776 -86.1682 240.645 -90.2541 243.142C-93.5549 245.16 -92.7976 239.961 -92.7976 237.752C-92.7976 232.487 -92.6186 227.979 -90.7953 222.944C-90.2268 221.374 -89.6911 219.754 -88.9471 218.273C-86.9848 216.094 -84.0299 212.741 -86.52 214.968C-87.5655 215.903 -88.3284 217.04 -88.9471 218.273C-89.7511 219.165 -90.3885 219.861 -90.4165 219.895C-93.9653 224.207 -97.5085 228.558 -99.6706 233.778C-101.577 238.381 -102.159 243.292 -103.026 248.151C-103.346 249.945 -103.822 251.748 -103.973 253.568C-104.017 254.095 -103.808 255.347 -103.845 255.723L-104 255.719C-103.902 255.879 -103.858 255.857 -103.845 255.723L103 261Z" fill="#85AD95"/>
<path d="M103 261C103 259.197 102.43 258.015 101.539 256.427C99.4912 252.778 98.1989 248.862 95.9106 245.32C92.3836 239.861 88.2349 235.343 82.8141 231.872C79.6461 229.844 82.5699 236.062 82.76 236.8C83.8337 240.966 83.4175 246.754 81.6235 250.492C80.2448 253.365 78.3046 255.755 76.9153 258.55C74.7998 262.806 73.1357 257.58 72.4776 255.229C69.0522 242.989 68.0144 229.005 71.0165 216.574C71.8359 213.18 73.2346 210.723 75.9682 208.57C76.5915 208.08 80.3033 205.534 77.24 206.447C72.9961 207.712 70.2246 211.309 68.2024 215.131C64.4737 222.179 63.0211 230.512 61.3565 238.215C60.8432 240.59 59.8194 242.765 59.6518 245.211C59.5437 246.787 59.027 245.693 58.6776 244.776C57.2298 240.972 55.9115 237.316 53.9424 233.724C48.7866 224.317 42.6044 216.659 34.1624 210.04C33.6915 209.671 20.2541 200.6 20.2541 201.602C20.2541 205.242 22.5808 209.004 23.6094 212.382C25.4551 218.442 26.9474 224.186 26.4776 230.566C26.0335 236.597 20.8613 241.047 17.5482 245.592C16.6654 246.804 14.8424 251.074 14.8424 247.28C14.8424 241.426 13.575 235.544 12.8941 229.722C12.2972 224.617 12.4071 219.54 12.4071 214.396C12.4071 211.107 11.8069 207.141 12.6506 203.916C12.8689 203.081 13.1123 201.866 12.8671 201.003C12.8223 200.845 5.45159 207.484 5.10118 207.808C-0.956818 213.406 -7.63509 219.933 -10.16 228.061C-10.8109 230.157 -12.294 232.972 -12.4329 235.139C-12.5447 236.881 -12.4329 238.672 -12.4329 240.42C-12.4329 241.081 -12.2793 241.962 -12.46 242.598C-12.5549 242.932 -13.0943 242.23 -13.2447 241.917C-15.7844 236.637 -19.1383 231.828 -22.3906 226.973C-25.9456 221.665 -29.3815 216.318 -32.7812 210.912C-34.7666 207.754 -42.3968 194.814 -40.087 206.747C-38.3655 215.64 -35.023 224.009 -37.1647 233.125C-37.9155 236.32 -38.9821 240.711 -41.2776 243.251C-44.3652 246.668 -43.6047 239.433 -43.6047 237.589C-43.6047 237.077 -43.2358 233.736 -43.9024 233.587C-46.6696 232.969 -49.9418 238.395 -51.1812 240.094C-52.3194 241.653 -53.5375 243.249 -54.32 245.021C-54.801 246.109 -56.396 244.551 -56.8094 244.34C-62.7426 241.314 -70.8014 240.208 -77.4012 239.957C-82.1735 239.776 -86.1682 240.645 -90.2541 243.142C-93.5549 245.16 -92.7976 239.961 -92.7976 237.752C-92.7976 232.487 -92.6186 227.979 -90.7953 222.944C-89.7541 220.068 -88.8227 217.027 -86.52 214.968C-83.0096 211.828 -90.3202 219.778 -90.4165 219.895C-93.9653 224.207 -97.5085 228.558 -99.6706 233.778C-101.577 238.381 -102.159 243.292 -103.026 248.151C-103.346 249.945 -103.822 251.748 -103.973 253.568C-104.032 254.283 -103.627 256.33 -104 255.719L103 261Z" stroke="#85AD95" stroke-width="3" stroke-linecap="round"/>
<path d="M970 319C970 317.678 969.576 316.811 968.913 315.646C967.39 312.97 966.428 310.099 964.726 307.501C962.102 303.498 959.015 300.185 954.982 297.64C952.626 296.153 954.801 300.712 954.942 301.253C955.741 304.308 955.431 308.553 954.097 311.294C953.071 313.401 951.628 315.153 950.594 317.203C949.02 320.325 947.782 316.492 947.293 314.768C944.744 305.792 943.972 295.537 946.205 286.421C946.815 283.932 947.856 282.13 949.889 280.552C950.353 280.192 953.115 278.325 950.836 278.995C947.678 279.922 945.616 282.56 944.112 285.363C941.338 290.531 940.257 296.642 939.019 302.291C938.637 304.033 937.875 305.628 937.751 307.422C937.67 308.577 937.286 307.775 937.026 307.102C935.949 304.313 934.968 301.632 933.503 298.997C929.667 292.099 925.068 286.483 918.787 281.63C918.437 281.359 908.44 274.706 908.44 275.441C908.44 278.111 910.171 280.869 910.936 283.346C912.31 287.791 913.42 292.003 913.07 296.682C912.74 301.105 908.892 304.368 906.427 307.701C905.77 308.589 904.414 311.721 904.414 308.939C904.414 304.646 903.471 300.332 902.965 296.063C902.521 292.319 902.602 288.596 902.602 284.824C902.602 282.411 902.156 279.503 902.784 277.138C902.946 276.526 903.127 275.635 902.945 275.002C902.911 274.886 897.428 279.755 897.167 279.993C892.66 284.098 887.692 288.884 885.813 294.845C885.329 296.382 884.226 298.446 884.122 300.035C884.039 301.313 884.122 302.626 884.122 303.908C884.122 304.393 884.237 305.039 884.102 305.505C884.032 305.75 883.63 305.235 883.518 305.006C881.629 301.134 879.134 297.607 876.714 294.047C874.069 290.155 871.513 286.233 868.984 282.268C867.507 279.953 861.83 270.464 863.549 279.214C864.83 285.736 867.316 291.873 865.723 298.558C865.164 300.902 864.371 304.121 862.663 305.984C860.366 308.49 860.932 303.184 860.932 301.832C860.932 301.457 861.206 299.007 860.71 298.897C858.652 298.444 856.217 302.423 855.295 303.669C854.448 304.813 853.542 305.983 852.96 307.282C852.602 308.08 851.416 306.937 851.108 306.783C846.694 304.563 840.698 303.753 835.788 303.569C832.238 303.436 829.266 304.073 826.226 305.904C823.771 307.384 824.334 303.571 824.334 301.952C824.334 298.091 824.467 294.785 825.824 291.092C826.247 289.941 826.645 288.753 827.199 287.667C828.659 286.069 830.857 283.61 829.004 285.243C828.227 285.929 827.659 286.763 827.199 287.667C826.601 288.321 826.126 288.831 826.106 288.856C823.465 292.019 820.829 295.209 819.221 299.037C817.803 302.412 817.37 306.014 816.725 309.578C816.487 310.893 816.132 312.215 816.02 313.55C815.988 313.937 816.143 314.855 816.116 315.13L816 315.127C816.073 315.245 816.106 315.228 816.116 315.13L970 319Z" fill="#85AD95"/>
<path d="M970 319C970 317.678 969.576 316.811 968.913 315.646C967.39 312.97 966.428 310.099 964.726 307.501C962.102 303.498 959.015 300.185 954.982 297.64C952.626 296.153 954.801 300.712 954.942 301.253C955.741 304.308 955.431 308.553 954.097 311.294C953.071 313.401 951.628 315.153 950.594 317.203C949.02 320.325 947.782 316.492 947.293 314.768C944.744 305.792 943.972 295.537 946.205 286.421C946.815 283.932 947.856 282.13 949.889 280.552C950.353 280.192 953.115 278.325 950.836 278.995C947.678 279.922 945.616 282.56 944.112 285.363C941.338 290.531 940.257 296.642 939.019 302.291C938.637 304.033 937.875 305.628 937.751 307.422C937.67 308.577 937.286 307.775 937.026 307.102C935.949 304.313 934.968 301.632 933.503 298.997C929.667 292.099 925.068 286.483 918.787 281.63C918.437 281.359 908.44 274.706 908.44 275.441C908.44 278.111 910.171 280.869 910.936 283.346C912.31 287.791 913.42 292.003 913.07 296.682C912.74 301.105 908.892 304.368 906.427 307.701C905.77 308.589 904.414 311.721 904.414 308.939C904.414 304.646 903.471 300.332 902.965 296.063C902.521 292.319 902.602 288.596 902.602 284.824C902.602 282.411 902.156 279.503 902.784 277.138C902.946 276.526 903.127 275.635 902.945 275.002C902.911 274.886 897.428 279.755 897.167 279.993C892.66 284.098 887.692 288.884 885.813 294.845C885.329 296.382 884.226 298.446 884.122 300.035C884.039 301.313 884.122 302.626 884.122 303.908C884.122 304.393 884.237 305.039 884.102 305.505C884.032 305.75 883.63 305.235 883.518 305.006C881.629 301.134 879.134 297.607 876.714 294.047C874.069 290.155 871.513 286.233 868.984 282.268C867.507 279.953 861.83 270.464 863.549 279.214C864.83 285.736 867.316 291.873 865.723 298.558C865.164 300.902 864.371 304.121 862.663 305.984C860.366 308.49 860.932 303.184 860.932 301.832C860.932 301.457 861.206 299.007 860.71 298.897C858.652 298.444 856.217 302.423 855.295 303.669C854.448 304.813 853.542 305.983 852.96 307.282C852.602 308.08 851.416 306.937 851.108 306.783C846.694 304.563 840.698 303.753 835.789 303.569C832.238 303.436 829.266 304.073 826.226 305.904C823.771 307.384 824.334 303.571 824.334 301.952C824.334 298.091 824.467 294.785 825.824 291.092C826.598 288.983 827.291 286.753 829.004 285.243C831.616 282.941 826.177 288.77 826.106 288.856C823.465 292.019 820.829 295.209 819.221 299.037C817.803 302.412 817.37 306.014 816.725 309.578C816.487 310.893 816.132 312.215 816.02 313.55C815.976 314.074 816.277 315.575 816 315.127L970 319Z" stroke="#85AD95" stroke-width="3" stroke-linecap="round"/>
<path d="M1233.6 196.19C1233.09 194.966 1232.37 194.324 1231.32 193.498C1228.89 191.598 1226.92 189.305 1224.36 187.546C1220.41 184.836 1216.3 182.938 1211.6 182.111C1208.86 181.627 1212.6 185.023 1212.94 185.47C1214.83 187.995 1216.15 192.04 1215.96 195.083C1215.81 197.422 1215.13 199.59 1214.95 201.879C1214.68 205.364 1212.08 202.286 1210.98 200.876C1205.22 193.534 1200.62 184.336 1199.23 175.053C1198.85 172.519 1199.13 170.457 1200.42 168.226C1200.71 167.717 1202.56 164.943 1200.7 166.426C1198.13 168.481 1197.22 171.703 1196.89 174.867C1196.28 180.701 1197.6 186.766 1198.59 192.463C1198.9 194.22 1198.8 195.984 1199.36 197.692C1199.73 198.792 1199.07 198.195 1198.57 197.671C1196.52 195.497 1194.59 193.388 1192.24 191.504C1186.08 186.573 1179.69 183.118 1172.04 181.006C1171.62 180.888 1159.84 178.519 1160.12 179.199C1161.13 181.669 1163.78 183.567 1165.43 185.569C1168.38 189.162 1171 192.64 1172.45 197.102C1173.82 201.321 1171.5 205.798 1170.48 209.817C1170.21 210.887 1170.14 214.299 1169.09 211.725C1167.46 207.752 1164.95 204.117 1162.87 200.358C1161.04 197.061 1159.7 193.584 1158.27 190.094C1157.36 187.861 1155.85 185.339 1155.53 182.912C1155.45 182.284 1155.28 181.391 1154.87 180.874C1154.8 180.78 1151.56 187.363 1151.41 187.682C1148.8 193.188 1146.01 199.5 1146.53 205.728C1146.67 207.334 1146.43 209.663 1146.93 211.172C1147.34 212.386 1147.92 213.57 1148.4 214.756C1148.58 215.205 1148.94 215.759 1148.99 216.242C1149.01 216.495 1148.45 216.171 1148.26 216.001C1145.04 213.133 1141.4 210.815 1137.81 208.436C1133.89 205.836 1130.04 203.175 1126.19 200.465C1123.95 198.881 1115.1 192.25 1120.01 199.697C1123.66 205.248 1128.29 209.985 1129.35 216.776C1129.72 219.156 1130.2 222.436 1129.33 224.807C1128.15 227.996 1126.66 222.872 1126.15 221.62C1126.01 221.273 1125.34 218.902 1124.84 218.989C1122.76 219.349 1122.01 223.953 1121.63 225.455C1121.28 226.835 1120.89 228.261 1120.84 229.684C1120.81 230.559 1119.28 229.95 1118.94 229.924C1114.01 229.542 1108.15 231.063 1103.54 232.753C1100.21 233.975 1097.7 235.69 1095.58 238.537C1093.86 240.837 1092.94 237.095 1092.33 235.596C1090.87 232.023 1089.74 228.912 1089.59 224.981C1089.55 223.756 1089.47 222.506 1089.57 221.29C1090.31 219.258 1091.42 216.15 1090.32 218.363C1089.86 219.292 1089.65 220.279 1089.57 221.29C1089.26 222.123 1089.02 222.774 1089.01 222.805C1087.76 226.732 1086.53 230.683 1086.49 234.836C1086.46 238.497 1087.42 241.994 1088.17 245.536C1088.45 246.843 1088.63 248.201 1089.03 249.479C1089.14 249.849 1089.64 250.64 1089.71 250.905L1089.61 250.946C1089.72 251.028 1089.74 251 1089.71 250.905L1233.6 196.19Z" fill="#85AD95"/>
<path d="M1233.6 196.19C1233.09 194.966 1232.37 194.324 1231.32 193.498C1228.89 191.598 1226.92 189.305 1224.36 187.546C1220.41 184.836 1216.3 182.938 1211.6 182.111C1208.86 181.627 1212.6 185.023 1212.94 185.47C1214.83 187.995 1216.15 192.04 1215.96 195.083C1215.81 197.422 1215.13 199.59 1214.95 201.879C1214.68 205.364 1212.08 202.286 1210.98 200.876C1205.22 193.534 1200.62 184.336 1199.23 175.053C1198.85 172.519 1199.13 170.457 1200.42 168.226C1200.71 167.717 1202.56 164.943 1200.7 166.426C1198.13 168.481 1197.22 171.703 1196.89 174.867C1196.28 180.701 1197.6 186.766 1198.59 192.463C1198.9 194.22 1198.8 195.984 1199.36 197.692C1199.73 198.792 1199.07 198.195 1198.57 197.671C1196.52 195.497 1194.59 193.388 1192.24 191.504C1186.08 186.573 1179.69 183.118 1172.04 181.006C1171.62 180.888 1159.84 178.519 1160.12 179.199C1161.13 181.669 1163.78 183.567 1165.43 185.569C1168.38 189.162 1171 192.64 1172.45 197.102C1173.82 201.321 1171.5 205.798 1170.48 209.817C1170.21 210.887 1170.14 214.299 1169.09 211.725C1167.46 207.752 1164.95 204.117 1162.87 200.358C1161.04 197.061 1159.7 193.584 1158.27 190.094C1157.36 187.861 1155.85 185.339 1155.53 182.912C1155.45 182.284 1155.28 181.391 1154.87 180.874C1154.8 180.78 1151.56 187.363 1151.41 187.682C1148.8 193.188 1146.01 199.5 1146.53 205.728C1146.67 207.334 1146.43 209.663 1146.93 211.172C1147.34 212.386 1147.92 213.57 1148.4 214.756C1148.58 215.205 1148.94 215.759 1148.99 216.242C1149.01 216.495 1148.45 216.171 1148.26 216.001C1145.04 213.133 1141.4 210.815 1137.81 208.436C1133.89 205.836 1130.04 203.175 1126.19 200.465C1123.95 198.881 1115.1 192.25 1120.01 199.697C1123.66 205.248 1128.29 209.985 1129.35 216.776C1129.72 219.156 1130.2 222.436 1129.33 224.807C1128.15 227.996 1126.66 222.872 1126.15 221.62C1126.01 221.273 1125.34 218.902 1124.84 218.989C1122.76 219.349 1122.01 223.953 1121.63 225.455C1121.28 226.835 1120.89 228.261 1120.84 229.684C1120.81 230.559 1119.28 229.95 1118.94 229.924C1114.01 229.542 1108.15 231.063 1103.54 232.753C1100.21 233.975 1097.7 235.69 1095.58 238.537C1093.86 240.837 1092.94 237.095 1092.33 235.596C1090.87 232.023 1089.74 228.912 1089.59 224.981C1089.51 222.736 1089.31 220.41 1090.32 218.363C1091.87 215.243 1089.04 222.699 1089.01 222.805C1087.76 226.732 1086.53 230.683 1086.49 234.836C1086.46 238.497 1087.42 241.994 1088.17 245.536C1088.45 246.843 1088.63 248.201 1089.03 249.479C1089.19 249.981 1090.03 251.256 1089.61 250.946L1233.6 196.19Z" stroke="#85AD95" stroke-width="3" stroke-linecap="round"/>
<path d="M1250.77 201.062C1250.64 199.747 1250.97 198.841 1251.51 197.613C1252.74 194.794 1253.4 191.838 1254.82 189.078C1257.02 184.823 1259.74 181.207 1263.49 178.257C1265.68 176.533 1263.99 181.294 1263.91 181.846C1263.43 184.968 1264.18 189.157 1265.79 191.745C1267.03 193.734 1268.65 195.327 1269.89 197.258C1271.78 200.199 1272.61 196.259 1272.92 194.493C1274.52 185.301 1274.22 175.022 1271.05 166.186C1270.19 163.775 1268.97 162.09 1266.78 160.732C1266.28 160.422 1263.34 158.852 1265.68 159.282C1268.91 159.876 1271.24 162.285 1273.03 164.917C1276.32 169.769 1278.03 175.734 1279.85 181.224C1280.41 182.917 1281.33 184.424 1281.65 186.195C1281.85 187.336 1282.14 186.498 1282.33 185.802C1283.11 182.916 1283.81 180.148 1284.99 177.375C1288.09 170.115 1292.08 164.052 1297.83 158.572C1298.15 158.266 1307.4 150.611 1307.47 151.342C1307.75 153.997 1306.32 156.921 1305.81 159.464C1304.91 164.027 1304.24 168.332 1305.08 172.948C1305.86 177.313 1310.03 180.159 1312.83 183.218C1313.57 184.033 1315.25 187.007 1314.96 184.24C1314.51 179.97 1315 175.582 1315.06 171.283C1315.11 167.513 1314.65 163.819 1314.25 160.067C1314 157.668 1314.15 154.729 1313.28 152.442C1313.05 151.85 1312.78 150.983 1312.89 150.334C1312.91 150.216 1318.87 154.488 1319.16 154.697C1324.07 158.312 1329.51 162.556 1331.99 168.289C1332.64 169.767 1333.95 171.706 1334.22 173.276C1334.43 174.538 1334.48 175.853 1334.62 177.128C1334.67 177.609 1334.62 178.264 1334.8 178.714C1334.9 178.95 1335.25 178.397 1335.33 178.157C1336.81 174.109 1338.92 170.342 1340.96 166.55C1343.19 162.404 1345.32 158.238 1347.43 154.032C1348.65 151.576 1353.31 141.548 1352.51 150.429C1351.92 157.049 1350.08 163.412 1352.36 169.895C1353.16 172.167 1354.28 175.287 1356.18 176.963C1358.72 179.216 1357.61 173.998 1357.47 172.653C1357.43 172.28 1356.9 169.871 1357.38 169.711C1359.38 169.046 1362.22 172.751 1363.26 173.894C1364.23 174.944 1365.25 176.013 1365.96 177.245C1366.4 178.002 1367.46 176.742 1367.75 176.556C1371.91 173.89 1377.79 172.46 1382.65 171.767C1386.17 171.266 1389.19 171.591 1392.41 173.097C1395 174.313 1394.05 170.58 1393.88 168.969C1393.48 165.129 1393 161.854 1391.27 158.323C1390.73 157.222 1390.21 156.082 1389.55 155.059C1387.93 153.621 1385.49 151.404 1387.5 152.836C1388.34 153.437 1388.99 154.208 1389.55 155.059C1390.21 155.648 1390.73 156.106 1390.76 156.128C1393.71 158.999 1396.66 161.898 1398.66 165.539C1400.42 168.748 1401.23 172.286 1402.24 175.763C1402.61 177.046 1403.1 178.324 1403.35 179.641C1403.43 180.021 1403.37 180.951 1403.42 181.222L1403.54 181.207C1403.48 181.331 1403.44 181.318 1403.42 181.222L1250.77 201.062Z" fill="#85AD95"/>
<path d="M1250.77 201.062C1250.64 199.747 1250.97 198.841 1251.51 197.613C1252.74 194.794 1253.4 191.838 1254.82 189.078C1257.02 184.823 1259.74 181.207 1263.49 178.257C1265.68 176.533 1263.99 181.294 1263.91 181.846C1263.43 184.968 1264.18 189.157 1265.79 191.745C1267.03 193.734 1268.65 195.327 1269.89 197.258C1271.78 200.199 1272.61 196.259 1272.92 194.493C1274.52 185.301 1274.22 175.022 1271.05 166.186C1270.19 163.775 1268.97 162.09 1266.78 160.732C1266.28 160.422 1263.34 158.852 1265.68 159.282C1268.91 159.876 1271.24 162.285 1273.03 164.917C1276.32 169.769 1278.03 175.734 1279.85 181.224C1280.41 182.917 1281.33 184.424 1281.65 186.195C1281.85 187.336 1282.14 186.498 1282.33 185.802C1283.11 182.916 1283.81 180.148 1284.99 177.375C1288.09 170.115 1292.08 164.052 1297.83 158.572C1298.15 158.266 1307.4 150.611 1307.47 151.342C1307.75 153.997 1306.32 156.921 1305.81 159.464C1304.91 164.027 1304.24 168.332 1305.08 172.948C1305.86 177.313 1310.03 180.159 1312.83 183.218C1313.57 184.033 1315.25 187.007 1314.96 184.24C1314.51 179.97 1315 175.582 1315.06 171.283C1315.11 167.513 1314.65 163.819 1314.25 160.067C1314 157.668 1314.15 154.729 1313.28 152.442C1313.05 151.85 1312.78 150.983 1312.89 150.334C1312.91 150.216 1318.87 154.488 1319.16 154.697C1324.07 158.312 1329.51 162.556 1331.99 168.289C1332.64 169.767 1333.95 171.706 1334.22 173.276C1334.43 174.538 1334.48 175.853 1334.62 177.128C1334.67 177.609 1334.62 178.264 1334.8 178.714C1334.9 178.95 1335.25 178.397 1335.33 178.157C1336.81 174.109 1338.92 170.342 1340.96 166.55C1343.19 162.404 1345.32 158.238 1347.43 154.032C1348.65 151.576 1353.31 141.548 1352.51 150.429C1351.92 157.049 1350.08 163.412 1352.36 169.895C1353.16 172.167 1354.28 175.287 1356.18 176.963C1358.72 179.216 1357.61 173.998 1357.47 172.653C1357.43 172.28 1356.9 169.871 1357.38 169.711C1359.38 169.046 1362.22 172.751 1363.26 173.894C1364.23 174.944 1365.25 176.013 1365.96 177.245C1366.4 178.002 1367.46 176.742 1367.75 176.556C1371.91 173.89 1377.79 172.46 1382.65 171.767C1386.17 171.266 1389.19 171.591 1392.41 173.097C1395 174.313 1394.05 170.58 1393.88 168.969C1393.48 165.129 1393 161.854 1391.27 158.323C1390.28 156.306 1389.36 154.16 1387.5 152.836C1384.66 150.818 1390.68 156.05 1390.76 156.128C1393.71 158.999 1396.66 161.898 1398.66 165.539C1400.42 168.748 1401.23 172.286 1402.24 175.763C1402.61 177.046 1403.1 178.324 1403.35 179.641C1403.45 180.157 1403.31 181.681 1403.54 181.207L1250.77 201.062Z" stroke="#85AD95" stroke-width="3" stroke-linecap="round"/>
<ellipse cx="583.599" cy="333.23" rx="583.599" ry="333.23" transform="matrix(0.984015 0.178084 -0.0718125 0.997418 -396.14 149.785)" fill="url(#paint1_linear_42_299)"/>
<ellipse cx="587.667" cy="332.276" rx="587.667" ry="332.276" transform="matrix(0.972531 -0.232773 0.0947916 0.995497 642 334.586)" fill="url(#paint2_linear_42_299)"/>
<ellipse cx="587.667" cy="332.276" rx="587.667" ry="332.276" transform="matrix(0.972531 -0.232773 0.0947916 0.995497 956 585.586)" fill="#F6F2ED"/>
<ellipse cx="430.987" cy="249.441" rx="430.987" ry="249.441" transform="matrix(0.999999 0.00135279 -0.000538184 1 304.269 289.303)" fill="url(#paint3_linear_42_299)"/>
<ellipse cx="316.788" cy="183.346" rx="316.788" ry="183.346" transform="matrix(0.973517 0.228616 -0.227823 0.973703 153.541 342)" fill="url(#paint4_linear_42_299)"/>
<ellipse cx="316.788" cy="183.346" rx="316.788" ry="183.346" transform="matrix(1 0 0.000814597 1 525 554)" fill="url(#paint5_linear_42_299)"/>
<ellipse cx="316.788" cy="183.346" rx="316.788" ry="183.346" transform="matrix(0.965926 0.258819 -0.258032 0.966136 -67.3816 521)" fill="url(#paint6_linear_42_299)"/>
<ellipse cx="316.788" cy="183.346" rx="316.788" ry="183.346" transform="matrix(0.965926 -0.258819 0.259606 0.965715 828 519.981)" fill="url(#paint7_linear_42_299)"/>
<ellipse cx="290.449" cy="183.346" rx="290.449" ry="183.346" transform="matrix(0.997552 -0.0699237 0.0707363 0.997495 684 670.619)" fill="url(#paint8_linear_42_299)"/>
<path d="M1007 200.118C1008.34 196.274 1011.48 193.034 1013.9 189.821C1018.17 184.159 1025.19 179.314 1032.28 178.357C1039.03 177.446 1046.03 178.764 1050.28 184.531C1054.27 189.939 1055.27 197.918 1050.85 203.506C1049.03 205.813 1044.14 207.424 1042.15 204.431C1038.44 198.861 1043.49 193.34 1046.95 188.865C1051.48 183.004 1056.8 177.801 1063.11 173.912C1066.09 172.068 1070 169.707 1073.59 169.4C1077.29 169.082 1081.07 170.88 1084.5 172.073" stroke="black" stroke-width="4" stroke-linecap="round"/>
<circle cx="910" cy="137" r="26" fill="#F6F2ED"/>
<circle cx="4" cy="4" r="4" transform="matrix(1 0 0 -1 928 266)" fill="#F6F2ED"/>
<circle cx="9" cy="9" r="9" transform="matrix(1 0 0 -1 939 260)" fill="#F6F2ED"/>
<ellipse cx="15" cy="15.5" rx="15" ry="15.5" transform="matrix(1 0 0 -1 495 284)" fill="#F6F2ED"/>
<ellipse cx="21" cy="21.5" rx="21" ry="21.5" transform="matrix(1 0 0 -1 462 275)" fill="#85AD95"/>
<circle cx="10.5" cy="10.5" r="10.5" transform="matrix(1 0 0 -1 1295 119)" fill="#85AD95"/>
<circle cx="18.5" cy="18.5" r="18.5" transform="matrix(1 0 0 -1 1258 161)" fill="#85AD95"/>
<circle cx="916" cy="135" r="24" stroke="black" stroke-width="4"/>
<path d="M517 262.5C517 254.982 511.118 249 504 249C496.882 249 491 254.982 491 262.5C491 270.018 496.882 276 504 276C511.118 276 517 270.018 517 262.5Z" stroke="black" stroke-width="4"/>
<path d="M390.5 204.826C393.185 208.889 396.553 214.419 400.975 216.861C407.262 220.333 414.208 220.873 421.201 220.873C428.932 220.873 436.642 219.737 443.062 215.004C448.015 211.351 452.072 206.93 453.351 200.703C453.97 197.687 455.198 191.59 452.014 189.447C450.277 188.278 447.972 188.633 446.052 187.961C445.424 187.742 442.36 187.341 441.724 187.85C440.846 188.553 440.313 191.289 440.313 192.438C440.313 196.677 447.392 196.843 450.305 196.802C457.451 196.702 461.306 193.687 465.943 188.482C470.823 183.004 474.497 177.75 475.23 170.317C475.387 168.727 475.724 167.001 474.914 165.544C474.677 165.118 474.413 164.518 474.413 164.04" stroke="#85AD95" stroke-width="3" stroke-linecap="round"/>
<path d="M601.218 109.41C600.662 110.362 599.393 111.989 599.187 113.117C597.72 113.103 596.447 113.017 594.982 112.529C592.451 111.685 589.965 111.418 587.292 111.418C586.782 111.418 582.376 111.368 583.075 112.222C583.668 112.947 584.269 113.694 584.823 114.442C585.965 115.984 587.522 117.298 588.792 118.742C589.586 119.644 590.78 120.834 591.816 121.435C592.137 121.621 593.368 121.666 593.434 122.061C593.531 122.64 593.073 123.895 592.595 124.223C592.247 124.462 592.479 124.815 592.359 125.144C592.184 125.625 591.679 126.149 591.438 126.632C590.714 128.08 586.743 137.402 588.036 137.771C590.402 138.447 592.01 135.004 593.328 133.743C594.291 132.822 595.187 132.182 595.785 130.932C596.26 129.939 597.11 128.913 597.781 128.038C598.613 126.952 598.836 127.634 599.718 128.026C600.789 128.502 602.039 128.62 603.179 129.066C605.73 130.064 608.31 131.343 610.656 132.763C612.266 133.737 613.531 134.381 615.393 134.381C616.618 134.381 615.365 132.007 615.346 131.286C615.293 129.287 613.49 127.133 612.818 125.286C612.502 124.416 611.653 123.325 613.113 123.325C614.301 123.325 615.539 122.029 616.716 121.789C617.716 121.586 624.507 120.196 623.685 118.553C622.489 116.161 619.364 115.938 617.153 115.257C616.72 115.124 612.436 114.542 612.369 113.97C612.264 113.078 612.233 111.863 612.416 110.993C612.861 108.882 612.893 106.699 612.782 104.544C612.715 103.237 611.484 101 610.03 101C608.045 101 606.737 102.638 605.353 103.977C603.628 105.644 602.433 107.331 601.218 109.41Z" fill="white"/>
<path d="M599.187 113.119C599.392 111.992 600.662 110.363 601.218 109.41C602.433 107.331 603.628 105.644 605.353 103.977C606.737 102.638 608.045 101 610.03 101C611.484 101 612.715 103.237 612.782 104.544C612.893 106.699 612.861 108.882 612.416 110.993C612.233 111.863 612.264 113.078 612.369 113.97C612.436 114.542 616.72 115.124 617.153 115.257C619.364 115.938 622.489 116.161 623.685 118.553C624.507 120.196 617.716 121.586 616.716 121.789C615.539 122.029 614.301 123.325 613.113 123.325C611.653 123.325 612.502 124.416 612.818 125.286C613.49 127.133 615.293 129.287 615.346 131.286C615.365 132.007 616.618 134.381 615.393 134.381C613.531 134.381 612.266 133.737 610.656 132.763C608.31 131.343 605.73 130.064 603.179 129.066C602.039 128.62 600.789 128.502 599.718 128.026C598.836 127.634 598.613 126.952 597.781 128.038C597.11 128.913 596.26 129.939 595.785 130.932C595.187 132.182 594.291 132.822 593.328 133.743C592.01 135.004 590.402 138.447 588.036 137.771C586.743 137.402 590.714 128.08 591.438 126.632C591.679 126.149 592.184 125.625 592.359 125.144C592.479 124.815 592.247 124.462 592.595 124.223C593.073 123.895 593.531 122.64 593.434 122.061C593.368 121.666 592.137 121.621 591.816 121.435C590.78 120.834 589.586 119.644 588.792 118.742C587.522 117.298 585.965 115.984 584.823 114.442C584.269 113.694 583.668 112.947 583.075 112.222C582.376 111.368 586.782 111.418 587.292 111.418C589.965 111.418 592.451 111.685 594.982 112.529C596.655 113.087 598.077 113.119 599.824 113.119" stroke="black" stroke-width="3" stroke-linecap="round"/>
<path d="M295.419 173.451C296.958 173.35 298.632 173.513 300.174 173.694C304.617 174.213 309.216 173.462 312.721 170.607C314.86 168.865 316.093 167.611 315.898 164.648C315.645 160.806 308.952 159.391 305.765 159.227C305.231 159.199 302.016 159.805 301.97 159.1C301.898 158.009 302.171 156.609 302.269 155.511C302.513 152.786 302.083 149.968 301.904 147.246C301.811 145.845 302.088 143.633 301.076 142.502C299.427 140.658 296.702 139.584 294.264 139.639C288.412 139.769 285.478 142.941 284.68 148.578C284.259 151.549 284.037 154.796 286.815 156.607C287.786 157.241 288.933 157.796 289.762 158.614C290.131 158.978 290.964 158.991 291.206 159.451C291.743 160.473 286.723 165.769 285.97 166.677C282.004 171.456 278.505 176.636 273.958 180.911C272.864 181.94 272.059 183.268 271.179 184.485C268.618 188.031 264.997 191.012 261.659 193.797C260.997 194.349 260.302 194.966 259.586 195.44C258.786 195.97 258.873 195.188 258.45 194.444C256.902 191.728 255.967 190.512 252.59 190.368C248.099 190.177 241.678 191.435 239.05 195.542C235.607 200.922 241.565 205.447 246.629 205.553C249.094 205.605 251.44 205.005 253.853 204.741C254.497 204.67 259.077 202.856 258.344 203.692C254.116 208.516 259.139 214.574 264.784 215.067C269.379 215.467 272.091 209.496 271.847 205.778C271.777 204.717 271.351 203.098 271.824 202.111C272.709 200.262 274.016 198.633 275.361 197.099C276.538 195.756 277.796 194.543 279.165 193.438C280.896 192.041 282.292 190.336 284.018 188.836C286.952 186.285 287.984 182.272 290.459 179.449C291.684 178.051 292.405 176.166 294.188 175.238C294.68 174.981 296.628 173.452 296.817 173.002" stroke="black" stroke-width="3" stroke-linecap="round"/>
<path d="M1270.01 141.583C1270.01 133.435 1269.24 121.131 1279.73 119.145C1287.78 117.623 1300.08 128.434 1292.78 135.924C1290.05 138.732 1288.2 139.186 1284.53 139.186C1279.34 139.186 1276.81 136.787 1279.47 131.995C1281.25 128.784 1286.15 129.598 1289.19 129.598" stroke="black" stroke-width="3" stroke-linecap="round"/>
<path d="M1119.88 126.183C1119.64 124.057 1116.9 121.755 1115.14 120.875C1113.9 120.253 1113.02 119.251 1111.64 119.112C1110.51 119 1109.56 118.578 1108.52 118.177C1106.99 117.579 1105.53 117.568 1103.91 117.568C1100.54 117.568 1110.54 116.001 1113.92 116.001C1118.66 116.001 1121.08 116.67 1124.73 119.526C1125.41 120.052 1127.47 123.381 1128.32 122.376C1129.87 120.545 1130.39 117.515 1131.02 115.305C1132.52 110.051 1134.26 105.185 1137.24 100.598C1140.05 96.2794 1144.25 94.1246 1148.77 91.8518C1150.24 91.1162 1152.83 89.3716 1154.65 89.3716C1155.4 89.3716 1153.03 92.0286 1152.75 92.3739C1149.28 96.714 1146.52 102.367 1144.14 107.364C1143.17 109.401 1142.85 112.16 1143.01 114.413C1143.13 116.187 1144.15 117.503 1144.51 119.134C1144.63 119.656 1145.16 122.704 1146.03 122.093C1147.45 121.094 1148.63 118.673 1149.73 117.307C1151.42 115.206 1153.63 113.508 1155.69 111.78C1156.55 111.063 1159.43 108.978 1160.78 109.366C1161.63 109.607 1160.22 113.184 1160.22 113.673C1160.22 116.073 1159.11 121.941 1161 123.833" stroke="#85AD95" stroke-width="3" stroke-linecap="round"/>
<path d="M816 231.62C817.571 228.568 823.129 220.987 819.705 217.278C818.969 216.481 818.969 215.619 818.566 214.711C818.489 214.538 817.934 214.468 818.235 214.484C819.301 214.54 820.297 214.929 821.215 215.457C825.885 218.142 831.36 223.268 831.998 229.013C832.034 229.337 832.097 231.545 832.205 231.351C833.276 229.423 833.325 225.881 833.633 223.797C834.274 219.46 834.641 215.084 835.372 210.759C837.642 197.324 852.418 190.496 863.808 186.42C864.195 186.281 867.136 185.805 866.126 186.089C862.394 187.138 860.129 191.547 858.261 194.616C854.33 201.077 851.763 207.126 851.763 214.691C851.763 218.178 852.411 221.341 853.253 224.708C853.402 225.304 855.3 231.484 856.606 230.792C857.755 230.184 857.452 226.183 857.558 225.246C857.875 222.438 858.413 219.537 857.91 216.719C857.506 214.461 854.324 210.813 858.365 211.172C861.579 211.458 864.939 212.654 867.181 215.063C868.869 216.876 869.194 219.367 870.203 221.521C870.462 222.073 870.62 226.881 871.548 226.55C873.766 225.758 875.812 221.776 877.012 219.948C878.847 217.153 880.333 214.822 883.055 212.828C883.512 212.494 886.489 210.502 887.277 211.586C887.413 211.773 885.291 214.624 885.291 215.312C885.291 217.756 886.935 219.662 887.898 221.769C888.158 222.336 888.657 223.778 889.181 224.087C890.455 224.836 891.907 225.228 893.114 226.032" stroke="#85AD95" stroke-width="3" stroke-linecap="round"/>
<path d="M117.077 212C117.077 208.582 115.351 206.622 112.444 204.833C111.006 203.948 109.674 203.002 108.1 202.407C107.51 202.185 104.782 201.071 106.76 201.321C108.958 201.599 111.005 202.367 113.113 203.005C114.642 203.467 116.339 203.668 117.801 204.326C120.94 205.739 123.091 209.159 126.127 210.444C126.422 210.569 127.193 211.431 127.503 211.276C128.009 211.023 127.961 209.907 128.009 209.503C128.401 206.254 128.814 203.17 129.892 200.054C131.417 195.645 133.184 190.773 135.648 186.769C136.698 185.062 139.466 183.175 141.512 183.004C141.649 182.993 143.083 182.387 142.924 182.896C141.84 186.364 139.62 189.42 139.304 193.14C138.758 199.547 143.143 205.191 145.856 210.516C146.028 210.855 148.276 214.688 148.354 213.557C148.757 207.709 153.553 203.606 154.797 198.063C154.927 197.487 154.544 193.468 155.195 193.43C158.68 193.225 160.739 198.652 161.567 201.502C162.132 203.449 161.458 205.477 161.386 207.367C161.365 207.899 161.089 208.561 161.205 208.417C163.051 206.108 163.788 203.033 165.874 200.815C168.886 197.612 171.871 196.688 176.046 196.688C176.193 196.688 177.083 196.608 176.861 196.941C175.534 198.932 172.251 200.333 170.399 201.792C169.568 202.447 167.587 203.647 167.141 204.742C166.586 206.105 166.924 208.076 166.924 209.503C166.924 212.181 166.924 214.86 166.924 217.539" stroke="#85AD95" stroke-width="3" stroke-linecap="round"/>
<path d="M191.478 178.217C192.202 176.407 195.087 174.789 196.517 173.41C198.669 171.335 200.91 168.827 202.395 166.229C204.202 163.067 206.306 154.096 199.528 155.399C196.601 155.962 195.589 159.873 196.517 162.291C199.346 169.667 210.662 170.072 216.873 167.706C223.029 165.36 233.696 160.843 233.696 153.199" stroke="white" stroke-width="3" stroke-linecap="round"/>
<path d="M1373.78 97.0301C1373.41 97.9253 1373.42 99.0213 1373.38 100.002C1373.27 100.047 1373.16 100.125 1373.08 100.198C1372.58 100.677 1372.04 101.107 1371.52 101.563C1371.21 101.841 1367.71 104.694 1368.02 105.086C1368.34 105.487 1369.35 105.669 1369.82 105.678C1370.77 105.697 1371.66 105.518 1372.58 105.276C1372.64 105.26 1373.58 104.942 1373.64 105.16C1373.81 105.75 1373.65 106.681 1373.65 107.281C1373.65 108.759 1373.42 113.156 1373.73 111.713C1373.81 111.389 1374.04 111.023 1374.18 110.703C1374.61 109.694 1375.11 108.721 1375.62 107.752C1375.89 107.238 1376.14 106.714 1376.4 106.197C1376.47 106.055 1376.61 105.781 1376.75 105.699C1377.1 105.506 1377.75 105.884 1378.06 105.964C1379.52 106.331 1380.92 106.892 1382.44 107.006C1382.65 107.022 1383.73 107.055 1383.8 106.773C1383.83 106.602 1383.56 106.202 1383.48 106.054C1383.19 105.529 1382.76 105.105 1382.36 104.668C1382.07 104.357 1381.36 103.614 1381.36 103.16C1381.36 102.805 1381.61 102.637 1381.79 102.378C1381.95 102.158 1382.02 101.911 1382.13 101.669C1382.29 101.316 1382.6 101.019 1382.8 100.685C1383.2 100.011 1383.98 99.1515 1384 98.326C1384.01 97.6679 1383.63 97.7338 1383.06 97.7971C1381.69 97.9472 1380.52 98.4027 1379.24 98.8549C1378.89 98.9793 1378.52 99.0991 1378.21 98.9184C1377.93 98.7591 1377.86 98.4176 1377.64 98.1938C1377.06 97.6088 1376.62 96.9462 1376 96.4007C1375.17 95.6767 1374.22 95.9619 1373.78 97.0301Z" fill="white"/>
<path d="M1373.36 100.442C1373.43 99.3598 1373.35 98.0617 1373.78 97.0301C1374.22 95.9619 1375.17 95.6767 1376 96.4007C1376.62 96.9462 1377.06 97.6088 1377.64 98.1938C1377.86 98.4176 1377.93 98.7591 1378.21 98.9184C1378.52 99.0991 1378.89 98.9793 1379.24 98.8549C1380.52 98.4027 1381.69 97.9472 1383.06 97.7971C1383.63 97.7338 1384.01 97.6679 1384 98.326C1383.98 99.1515 1383.2 100.011 1382.8 100.685C1382.6 101.019 1382.29 101.316 1382.13 101.669C1382.02 101.911 1381.95 102.158 1381.79 102.378C1381.61 102.637 1381.36 102.805 1381.36 103.16C1381.36 103.614 1382.07 104.357 1382.36 104.668C1382.76 105.105 1383.19 105.529 1383.48 106.054C1383.56 106.202 1383.83 106.602 1383.8 106.773C1383.73 107.055 1382.65 107.022 1382.44 107.006C1380.92 106.892 1379.52 106.331 1378.06 105.964C1377.75 105.884 1377.1 105.506 1376.75 105.699C1376.61 105.781 1376.47 106.055 1376.4 106.197C1376.14 106.714 1375.89 107.238 1375.62 107.752C1375.11 108.721 1374.61 109.694 1374.18 110.703C1374.04 111.023 1373.81 111.389 1373.73 111.713C1373.42 113.156 1373.65 108.759 1373.65 107.281C1373.65 106.681 1373.81 105.75 1373.64 105.16C1373.58 104.942 1372.64 105.26 1372.58 105.276C1371.66 105.518 1370.77 105.697 1369.82 105.678C1369.35 105.669 1368.34 105.487 1368.02 105.086C1367.71 104.694 1371.21 101.841 1371.52 101.563C1372.04 101.107 1372.58 100.677 1373.08 100.198C1373.2 100.087 1373.4 99.9657 1373.55 99.9657" stroke="white" stroke-width="2" stroke-linecap="round"/>
</g>
<defs>
<linearGradient id="paint0_linear_42_299" x1="720" y1="0" x2="720" y2="844" gradientUnits="userSpaceOnUse">
<stop stop-color="#86AD95"/>
<stop offset="1" stop-color="#F6F2ED"/>
</linearGradient>
<linearGradient id="paint1_linear_42_299" x1="583.599" y1="-1.52546e-06" x2="568.985" y2="414.317" gradientUnits="userSpaceOnUse">
<stop stop-color="#DEF1F2"/>
<stop offset="1" stop-color="#F6F2ED"/>
</linearGradient>
<linearGradient id="paint2_linear_42_299" x1="587.666" y1="-1.52109e-06" x2="573.236" y2="413.141" gradientUnits="userSpaceOnUse">
<stop stop-color="#DEF1F2"/>
<stop offset="1" stop-color="#F6F2ED"/>
</linearGradient>
<linearGradient id="paint3_linear_42_299" x1="430.987" y1="-1.14189e-06" x2="419.898" y2="310.129" gradientUnits="userSpaceOnUse">
<stop stop-color="#DEF1F2"/>
<stop offset="1" stop-color="#F6F2ED"/>
</linearGradient>
<linearGradient id="paint4_linear_42_299" x1="316.787" y1="-8.39323e-07" x2="308.637" y2="227.953" gradientUnits="userSpaceOnUse">
<stop stop-color="#DEF1F2"/>
<stop offset="1" stop-color="#F6F2ED"/>
</linearGradient>
<linearGradient id="paint5_linear_42_299" x1="316.787" y1="-8.39323e-07" x2="308.637" y2="227.953" gradientUnits="userSpaceOnUse">
<stop stop-color="#DEF1F2"/>
<stop offset="1" stop-color="#F6F2ED"/>
</linearGradient>
<linearGradient id="paint6_linear_42_299" x1="316.787" y1="-8.39323e-07" x2="308.637" y2="227.953" gradientUnits="userSpaceOnUse">
<stop stop-color="#DEF1F2"/>
<stop offset="1" stop-color="#F6F2ED"/>
</linearGradient>
<linearGradient id="paint7_linear_42_299" x1="316.787" y1="-8.39323e-07" x2="308.637" y2="227.953" gradientUnits="userSpaceOnUse">
<stop stop-color="#DEF1F2"/>
<stop offset="1" stop-color="#F6F2ED"/>
</linearGradient>
<linearGradient id="paint8_linear_42_299" x1="290.449" y1="-8.39323e-07" x2="281.562" y2="227.898" gradientUnits="userSpaceOnUse">
<stop stop-color="#DEF1F2"/>
<stop offset="1" stop-color="#F6F2ED"/>
</linearGradient>
<clipPath id="clip0_42_299">
<rect width="1440" height="844" fill="white"/>
</clipPath>
</defs>
</svg>
