<svg width="1440" height="1024" viewBox="0 0 1440 1024" fill="none" xmlns="http://www.w3.org/2000/svg">
<g clip-path="url(#clip0_22_13517)">
<rect width="1440" height="1024" fill="url(#paint0_linear_22_13517)"/>
<path d="M307 505C307 502.836 307.694 501.418 308.779 499.512C311.272 495.133 312.845 490.434 315.631 486.184C319.924 479.634 324.975 474.211 331.574 470.047C335.431 467.613 331.871 475.074 331.64 475.96C330.333 480.959 330.84 487.905 333.024 492.391C334.702 495.839 337.064 498.706 338.755 502.06C341.331 507.168 343.357 500.896 344.158 498.075C348.328 483.387 349.591 466.606 345.936 451.688C344.939 447.616 343.236 444.667 339.908 442.085C339.149 441.496 334.631 438.441 338.36 439.537C343.527 441.055 346.901 445.371 349.362 449.957C353.902 458.414 355.67 468.414 357.696 477.658C358.321 480.508 359.568 483.118 359.772 486.053C359.903 487.945 360.532 486.632 360.958 485.531C362.72 480.967 364.325 476.58 366.722 472.268C372.999 460.98 380.525 451.79 390.802 443.849C391.376 443.406 407.734 432.52 407.734 433.722C407.734 438.091 404.902 442.605 403.649 446.658C401.403 453.931 399.586 460.823 400.158 468.479C400.698 475.717 406.995 481.057 411.028 486.511C412.103 487.964 414.322 493.088 414.322 488.536C414.322 481.511 415.865 474.453 416.694 467.466C417.421 461.341 417.287 455.248 417.287 449.075C417.287 445.128 418.018 440.369 416.991 436.499C416.725 435.497 416.429 434.039 416.727 433.003C416.782 432.814 425.755 440.781 426.181 441.17C433.556 447.887 441.686 455.72 444.76 465.474C445.552 467.988 447.358 471.367 447.527 473.967C447.663 476.057 447.527 478.207 447.527 480.304C447.527 481.097 447.34 482.154 447.56 482.918C447.676 483.318 448.332 482.476 448.515 482.101C451.607 475.764 455.69 469.993 459.649 464.167C463.977 457.799 468.16 451.381 472.299 444.894C474.716 441.105 484.005 425.577 481.193 439.896C479.097 450.568 475.028 460.611 477.635 471.55C478.549 475.385 479.848 480.653 482.642 483.702C486.401 487.802 485.475 479.119 485.475 476.907C485.475 476.293 485.026 472.284 485.838 472.105C489.206 471.363 493.19 477.874 494.699 479.912C496.084 481.784 497.567 483.699 498.52 485.825C499.106 487.131 501.047 485.261 501.551 485.008C508.774 481.376 518.584 480.05 526.619 479.749C532.429 479.531 537.292 480.574 542.266 483.571C546.284 485.992 545.362 479.753 545.362 477.103C545.362 470.785 545.144 465.375 542.925 459.332C542.233 457.449 541.581 455.505 540.675 453.727C538.286 451.112 534.689 447.089 537.72 449.761C538.993 450.883 539.921 452.248 540.675 453.727C541.654 454.798 542.429 455.633 542.464 455.674C546.784 460.849 551.097 466.069 553.729 472.334C556.05 477.857 556.759 483.75 557.814 489.581C558.204 491.734 558.783 493.897 558.967 496.082C559.02 496.714 558.766 498.217 558.811 498.667L559 498.663C558.881 498.855 558.827 498.828 558.811 498.667L307 505Z" fill="#85AD95"/>
<path d="M307 505C307 502.836 307.694 501.418 308.779 499.512C311.272 495.133 312.845 490.434 315.631 486.184C319.924 479.634 324.975 474.211 331.574 470.047C335.431 467.613 331.871 475.074 331.64 475.96C330.333 480.959 330.84 487.905 333.024 492.391C334.702 495.838 337.064 498.706 338.755 502.06C341.331 507.168 343.357 500.896 344.158 498.075C348.328 483.387 349.591 466.606 345.936 451.688C344.939 447.616 343.236 444.667 339.908 442.085C339.149 441.496 334.631 438.441 338.36 439.537C343.527 441.055 346.901 445.371 349.362 449.957C353.902 458.414 355.67 468.414 357.696 477.658C358.321 480.508 359.568 483.118 359.772 486.053C359.903 487.945 360.532 486.632 360.958 485.531C362.72 480.967 364.325 476.58 366.722 472.268C372.999 460.98 380.525 451.79 390.802 443.849C391.376 443.406 407.734 432.52 407.734 433.722C407.734 438.091 404.902 442.605 403.649 446.658C401.403 453.931 399.586 460.823 400.158 468.479C400.698 475.717 406.995 481.057 411.028 486.511C412.103 487.964 414.322 493.088 414.322 488.536C414.322 481.511 415.865 474.453 416.694 467.466C417.421 461.341 417.287 455.248 417.287 449.075C417.287 445.128 418.018 440.369 416.991 436.499C416.725 435.497 416.429 434.039 416.727 433.003C416.782 432.814 425.755 440.781 426.181 441.17C433.556 447.887 441.686 455.72 444.76 465.474C445.552 467.988 447.358 471.367 447.527 473.967C447.663 476.057 447.527 478.207 447.527 480.304C447.527 481.097 447.34 482.154 447.56 482.918C447.675 483.318 448.332 482.476 448.515 482.101C451.607 475.764 455.69 469.993 459.649 464.167C463.977 457.799 468.16 451.381 472.299 444.894C474.716 441.105 484.005 425.577 481.193 439.896C479.097 450.568 475.028 460.611 477.635 471.55C478.549 475.385 479.848 480.653 482.642 483.702C486.401 487.802 485.475 479.119 485.475 476.907C485.475 476.293 485.026 472.284 485.838 472.105C489.207 471.363 493.19 477.874 494.699 479.912C496.084 481.784 497.567 483.699 498.52 485.825C499.106 487.131 501.047 485.261 501.551 485.008C508.774 481.376 518.584 480.05 526.619 479.749C532.429 479.531 537.292 480.574 542.266 483.571C546.284 485.992 545.362 479.753 545.362 477.103C545.362 470.785 545.144 465.375 542.925 459.332C541.657 455.882 540.523 452.232 537.72 449.761C533.446 445.994 542.346 455.533 542.464 455.674C546.784 460.849 551.097 466.069 553.729 472.334C556.05 477.857 556.759 483.75 557.814 489.581C558.204 491.734 558.783 493.897 558.967 496.082C559.039 496.939 558.546 499.396 559 498.663L307 505Z" stroke="#85AD95" stroke-width="3" stroke-linecap="round"/>
<path d="M103 410C103 408.197 102.43 407.015 101.539 405.427C99.4912 401.778 98.1989 397.862 95.9106 394.32C92.3836 388.861 88.2349 384.343 82.8141 380.872C79.6461 378.844 82.5699 385.062 82.76 385.8C83.8337 389.966 83.4175 395.754 81.6235 399.492C80.2448 402.365 78.3046 404.755 76.9153 407.55C74.7998 411.806 73.1357 406.58 72.4777 404.229C69.0522 391.989 68.0145 378.005 71.0165 365.574C71.8359 362.18 73.2346 359.723 75.9682 357.57C76.5915 357.08 80.3033 354.534 77.24 355.447C72.9961 356.712 70.2246 360.309 68.2024 364.131C64.4737 371.179 63.0211 379.512 61.3565 387.215C60.8432 389.59 59.8194 391.765 59.6518 394.211C59.5437 395.787 59.027 394.693 58.6777 393.776C57.2298 389.972 55.9115 386.316 53.9424 382.724C48.7866 373.317 42.6045 365.659 34.1624 359.04C33.6915 358.671 20.2541 349.6 20.2541 350.602C20.2541 354.242 22.5808 358.004 23.6094 361.382C25.4551 367.442 26.9474 373.186 26.4777 379.566C26.0336 385.597 20.8613 390.047 17.5482 394.592C16.6654 395.804 14.8424 400.074 14.8424 396.28C14.8424 390.426 13.575 384.544 12.8941 378.722C12.2972 373.617 12.4071 368.54 12.4071 363.396C12.4071 360.107 11.8069 356.141 12.6506 352.916C12.8689 352.081 13.1123 350.866 12.8671 350.003C12.8223 349.845 5.4516 356.484 5.10119 356.808C-0.956811 362.406 -7.63509 368.933 -10.16 377.061C-10.8109 379.157 -12.294 381.972 -12.4329 384.139C-12.5447 385.881 -12.4329 387.672 -12.4329 389.42C-12.4329 390.081 -12.2793 390.962 -12.46 391.598C-12.5549 391.932 -13.0943 391.23 -13.2447 390.917C-15.7844 385.637 -19.1383 380.828 -22.3906 375.973C-25.9456 370.665 -29.3815 365.318 -32.7812 359.912C-34.7666 356.754 -42.3968 343.814 -40.087 355.747C-38.3655 364.64 -35.023 373.009 -37.1647 382.125C-37.9155 385.32 -38.9821 389.711 -41.2776 392.251C-44.3651 395.668 -43.6047 388.433 -43.6047 386.589C-43.6047 386.077 -43.2358 382.736 -43.9023 382.587C-46.6696 381.969 -49.9418 387.395 -51.1812 389.094C-52.3194 390.653 -53.5375 392.249 -54.32 394.021C-54.801 395.109 -56.396 393.551 -56.8094 393.34C-62.7426 390.314 -70.8014 389.208 -77.4012 388.957C-82.1735 388.776 -86.1682 389.645 -90.2541 392.142C-93.5549 394.16 -92.7976 388.961 -92.7976 386.752C-92.7976 381.487 -92.6186 376.979 -90.7953 371.944C-90.2268 370.374 -89.6911 368.754 -88.9471 367.273C-86.9848 365.094 -84.0299 361.741 -86.52 363.968C-87.5655 364.903 -88.3283 366.04 -88.9471 367.273C-89.7511 368.165 -90.3885 368.861 -90.4165 368.895C-93.9653 373.207 -97.5085 377.558 -99.6706 382.778C-101.577 387.381 -102.159 392.292 -103.026 397.151C-103.346 398.945 -103.822 400.748 -103.973 402.568C-104.017 403.095 -103.808 404.347 -103.845 404.723L-104 404.719C-103.902 404.879 -103.858 404.857 -103.845 404.723L103 410Z" fill="#85AD95"/>
<path d="M103 410C103 408.197 102.43 407.015 101.539 405.427C99.4912 401.778 98.1989 397.862 95.9106 394.32C92.3836 388.861 88.2349 384.343 82.8141 380.872C79.6461 378.844 82.5699 385.062 82.76 385.8C83.8337 389.966 83.4175 395.754 81.6235 399.492C80.2448 402.365 78.3046 404.755 76.9153 407.55C74.7998 411.806 73.1357 406.58 72.4777 404.229C69.0522 391.989 68.0145 378.005 71.0165 365.574C71.8359 362.18 73.2346 359.723 75.9682 357.57C76.5915 357.08 80.3033 354.534 77.24 355.447C72.9961 356.712 70.2246 360.309 68.2024 364.131C64.4737 371.179 63.0211 379.512 61.3565 387.215C60.8432 389.59 59.8194 391.765 59.6518 394.211C59.5437 395.787 59.027 394.693 58.6777 393.776C57.2298 389.972 55.9115 386.316 53.9424 382.724C48.7866 373.317 42.6045 365.659 34.1624 359.04C33.6915 358.671 20.2541 349.6 20.2541 350.602C20.2541 354.242 22.5808 358.004 23.6094 361.382C25.4551 367.442 26.9474 373.186 26.4777 379.566C26.0336 385.597 20.8613 390.047 17.5482 394.592C16.6654 395.804 14.8424 400.074 14.8424 396.28C14.8424 390.426 13.575 384.544 12.8941 378.722C12.2972 373.617 12.4071 368.54 12.4071 363.396C12.4071 360.107 11.8069 356.141 12.6506 352.916C12.8689 352.081 13.1123 350.866 12.8671 350.003C12.8223 349.845 5.4516 356.484 5.10118 356.808C-0.956811 362.406 -7.63508 368.933 -10.16 377.061C-10.8109 379.157 -12.294 381.972 -12.4329 384.139C-12.5447 385.881 -12.4329 387.672 -12.4329 389.42C-12.4329 390.081 -12.2793 390.962 -12.46 391.598C-12.5549 391.932 -13.0943 391.23 -13.2447 390.917C-15.7844 385.637 -19.1383 380.828 -22.3906 375.973C-25.9456 370.665 -29.3815 365.318 -32.7812 359.912C-34.7666 356.754 -42.3968 343.814 -40.087 355.747C-38.3655 364.64 -35.023 373.009 -37.1647 382.125C-37.9155 385.32 -38.9821 389.711 -41.2776 392.251C-44.3651 395.668 -43.6047 388.433 -43.6047 386.589C-43.6047 386.077 -43.2358 382.736 -43.9023 382.587C-46.6696 381.969 -49.9417 387.395 -51.1812 389.094C-52.3194 390.653 -53.5375 392.249 -54.32 394.021C-54.801 395.109 -56.396 393.551 -56.8094 393.34C-62.7426 390.314 -70.8014 389.208 -77.4012 388.957C-82.1735 388.776 -86.1682 389.645 -90.2541 392.142C-93.5549 394.16 -92.7976 388.961 -92.7976 386.752C-92.7976 381.487 -92.6185 376.979 -90.7953 371.944C-89.7541 369.068 -88.8227 366.027 -86.52 363.968C-83.0096 360.828 -90.3202 368.778 -90.4164 368.895C-93.9653 373.207 -97.5085 377.558 -99.6706 382.778C-101.577 387.381 -102.159 392.292 -103.026 397.151C-103.346 398.945 -103.822 400.748 -103.973 402.568C-104.032 403.283 -103.627 405.33 -104 404.719L103 410Z" stroke="#85AD95" stroke-width="3" stroke-linecap="round"/>
<path d="M970 468C970 466.678 969.576 465.811 968.913 464.646C967.39 461.97 966.428 459.099 964.726 456.501C962.102 452.498 959.015 449.185 954.982 446.64C952.626 445.153 954.801 449.712 954.942 450.253C955.741 453.308 955.431 457.553 954.097 460.294C953.071 462.401 951.628 464.153 950.594 466.203C949.02 469.325 947.782 465.492 947.293 463.768C944.744 454.792 943.972 444.537 946.205 435.421C946.815 432.932 947.856 431.13 949.889 429.552C950.353 429.192 953.115 427.325 950.836 427.995C947.678 428.922 945.616 431.56 944.112 434.363C941.338 439.531 940.257 445.642 939.019 451.291C938.637 453.033 937.875 454.628 937.751 456.422C937.67 457.577 937.286 456.775 937.026 456.102C935.949 453.313 934.968 450.632 933.503 447.997C929.667 441.099 925.068 435.483 918.787 430.63C918.437 430.359 908.44 423.706 908.44 424.441C908.44 427.111 910.171 429.869 910.936 432.346C912.31 436.791 913.42 441.003 913.07 445.682C912.74 450.105 908.892 453.368 906.427 456.701C905.77 457.589 904.414 460.721 904.414 457.939C904.414 453.646 903.471 449.332 902.965 445.063C902.521 441.319 902.602 437.596 902.602 433.824C902.602 431.411 902.156 428.503 902.784 426.138C902.946 425.526 903.127 424.635 902.945 424.002C902.911 423.886 897.428 428.755 897.167 428.993C892.66 433.098 887.692 437.884 885.813 443.845C885.329 445.382 884.226 447.446 884.122 449.035C884.039 450.313 884.122 451.626 884.122 452.908C884.122 453.393 884.237 454.039 884.102 454.505C884.032 454.75 883.63 454.235 883.518 454.006C881.629 450.134 879.134 446.607 876.714 443.047C874.069 439.155 871.513 435.233 868.984 431.268C867.507 428.953 861.83 419.464 863.549 428.214C864.83 434.736 867.316 440.873 865.723 447.558C865.164 449.902 864.371 453.121 862.663 454.984C860.366 457.49 860.932 452.184 860.932 450.832C860.932 450.457 861.206 448.007 860.71 447.897C858.652 447.444 856.217 451.423 855.295 452.669C854.448 453.813 853.542 454.983 852.96 456.282C852.602 457.08 851.416 455.937 851.108 455.783C846.694 453.563 840.698 452.753 835.788 452.569C832.238 452.436 829.266 453.073 826.226 454.904C823.771 456.384 824.334 452.571 824.334 450.952C824.334 447.091 824.467 443.785 825.824 440.092C826.247 438.941 826.645 437.753 827.199 436.667C828.659 435.069 830.857 432.61 829.004 434.243C828.227 434.929 827.659 435.763 827.199 436.667C826.601 437.321 826.126 437.831 826.106 437.856C823.465 441.019 820.829 444.209 819.221 448.037C817.803 451.412 817.37 455.014 816.725 458.578C816.487 459.893 816.132 461.215 816.02 462.55C815.988 462.937 816.143 463.855 816.116 464.13L816 464.127C816.073 464.245 816.106 464.228 816.116 464.13L970 468Z" fill="#85AD95"/>
<path d="M970 468C970 466.678 969.576 465.811 968.913 464.646C967.39 461.97 966.428 459.099 964.726 456.501C962.102 452.498 959.015 449.185 954.982 446.64C952.626 445.153 954.801 449.712 954.942 450.253C955.741 453.308 955.431 457.553 954.097 460.294C953.071 462.401 951.628 464.153 950.594 466.203C949.02 469.325 947.782 465.492 947.293 463.768C944.744 454.792 943.972 444.537 946.205 435.421C946.815 432.932 947.856 431.13 949.889 429.552C950.353 429.192 953.115 427.325 950.836 427.995C947.678 428.922 945.616 431.56 944.112 434.363C941.338 439.531 940.257 445.642 939.019 451.291C938.637 453.033 937.875 454.628 937.751 456.422C937.67 457.577 937.286 456.775 937.026 456.102C935.949 453.313 934.968 450.632 933.503 447.997C929.667 441.099 925.068 435.483 918.787 430.63C918.437 430.359 908.44 423.706 908.44 424.441C908.44 427.111 910.171 429.869 910.936 432.346C912.31 436.791 913.42 441.003 913.07 445.682C912.74 450.105 908.892 453.368 906.427 456.701C905.77 457.589 904.414 460.721 904.414 457.939C904.414 453.646 903.471 449.332 902.965 445.063C902.521 441.319 902.602 437.596 902.602 433.824C902.602 431.411 902.156 428.503 902.784 426.138C902.946 425.526 903.127 424.635 902.945 424.002C902.911 423.886 897.428 428.755 897.167 428.993C892.66 433.098 887.692 437.884 885.813 443.845C885.329 445.382 884.226 447.446 884.122 449.035C884.039 450.313 884.122 451.626 884.122 452.908C884.122 453.393 884.237 454.039 884.102 454.505C884.032 454.75 883.63 454.235 883.518 454.006C881.629 450.134 879.134 446.607 876.714 443.047C874.069 439.155 871.513 435.233 868.984 431.268C867.507 428.953 861.83 419.464 863.549 428.214C864.83 434.736 867.316 440.873 865.723 447.558C865.164 449.902 864.371 453.121 862.663 454.984C860.366 457.49 860.932 452.184 860.932 450.832C860.932 450.457 861.206 448.007 860.71 447.897C858.652 447.444 856.217 451.423 855.295 452.669C854.448 453.813 853.542 454.983 852.96 456.282C852.602 457.08 851.416 455.937 851.108 455.783C846.694 453.563 840.698 452.753 835.789 452.569C832.238 452.436 829.266 453.073 826.226 454.904C823.771 456.384 824.334 452.571 824.334 450.952C824.334 447.091 824.467 443.785 825.824 440.092C826.598 437.983 827.291 435.753 829.004 434.243C831.616 431.941 826.177 437.77 826.106 437.856C823.465 441.019 820.829 444.209 819.221 448.037C817.803 451.412 817.37 455.014 816.725 458.578C816.487 459.893 816.132 461.215 816.02 462.55C815.976 463.074 816.277 464.575 816 464.127L970 468Z" stroke="#85AD95" stroke-width="3" stroke-linecap="round"/>
<path d="M1233.6 345.19C1233.09 343.966 1232.37 343.324 1231.32 342.498C1228.89 340.598 1226.92 338.305 1224.36 336.546C1220.41 333.836 1216.3 331.938 1211.6 331.111C1208.86 330.627 1212.6 334.023 1212.94 334.47C1214.83 336.995 1216.15 341.04 1215.96 344.083C1215.81 346.422 1215.13 348.59 1214.95 350.879C1214.68 354.364 1212.08 351.286 1210.98 349.876C1205.22 342.534 1200.62 333.336 1199.23 324.053C1198.85 321.519 1199.13 319.457 1200.42 317.226C1200.71 316.717 1202.56 313.943 1200.7 315.426C1198.13 317.481 1197.22 320.703 1196.89 323.867C1196.28 329.701 1197.6 335.766 1198.59 341.463C1198.9 343.22 1198.8 344.984 1199.36 346.692C1199.73 347.792 1199.07 347.195 1198.57 346.671C1196.52 344.497 1194.59 342.388 1192.24 340.504C1186.08 335.573 1179.69 332.118 1172.04 330.006C1171.62 329.888 1159.84 327.519 1160.12 328.199C1161.13 330.669 1163.78 332.567 1165.43 334.569C1168.38 338.162 1171 341.64 1172.45 346.102C1173.82 350.321 1171.5 354.798 1170.48 358.817C1170.21 359.887 1170.14 363.299 1169.09 360.725C1167.46 356.752 1164.95 353.117 1162.87 349.358C1161.04 346.061 1159.7 342.584 1158.27 339.094C1157.36 336.861 1155.85 334.339 1155.53 331.912C1155.45 331.284 1155.28 330.391 1154.87 329.874C1154.8 329.78 1151.56 336.363 1151.41 336.682C1148.8 342.188 1146.01 348.5 1146.53 354.728C1146.67 356.334 1146.43 358.663 1146.93 360.172C1147.34 361.386 1147.92 362.57 1148.4 363.756C1148.58 364.205 1148.94 364.759 1148.99 365.242C1149.01 365.495 1148.45 365.171 1148.26 365.001C1145.04 362.133 1141.4 359.815 1137.81 357.436C1133.89 354.836 1130.04 352.175 1126.19 349.465C1123.95 347.881 1115.1 341.25 1120.01 348.697C1123.66 354.248 1128.29 358.985 1129.35 365.776C1129.72 368.156 1130.2 371.436 1129.33 373.807C1128.15 376.996 1126.66 371.872 1126.15 370.62C1126.01 370.273 1125.34 367.902 1124.84 367.989C1122.76 368.349 1122.01 372.953 1121.63 374.455C1121.28 375.835 1120.89 377.261 1120.84 378.684C1120.81 379.559 1119.28 378.95 1118.94 378.924C1114.01 378.542 1108.15 380.063 1103.54 381.753C1100.21 382.975 1097.7 384.69 1095.58 387.537C1093.86 389.837 1092.94 386.095 1092.33 384.596C1090.87 381.023 1089.74 377.912 1089.59 373.981C1089.55 372.756 1089.47 371.506 1089.57 370.29C1090.31 368.258 1091.42 365.15 1090.32 367.363C1089.86 368.292 1089.65 369.279 1089.57 370.29C1089.26 371.123 1089.02 371.774 1089.01 371.805C1087.76 375.732 1086.53 379.683 1086.49 383.836C1086.46 387.497 1087.42 390.994 1088.17 394.536C1088.45 395.843 1088.63 397.201 1089.03 398.479C1089.14 398.849 1089.64 399.64 1089.71 399.905L1089.61 399.946C1089.72 400.028 1089.74 400 1089.71 399.905L1233.6 345.19Z" fill="#85AD95"/>
<path d="M1233.6 345.19C1233.09 343.966 1232.37 343.324 1231.32 342.498C1228.89 340.598 1226.92 338.305 1224.36 336.546C1220.41 333.836 1216.3 331.938 1211.6 331.111C1208.86 330.627 1212.6 334.023 1212.94 334.47C1214.83 336.995 1216.15 341.04 1215.96 344.083C1215.81 346.422 1215.13 348.59 1214.95 350.879C1214.68 354.364 1212.08 351.286 1210.98 349.876C1205.22 342.534 1200.62 333.336 1199.23 324.053C1198.85 321.519 1199.13 319.457 1200.42 317.226C1200.71 316.717 1202.56 313.943 1200.7 315.426C1198.13 317.481 1197.22 320.703 1196.89 323.867C1196.28 329.701 1197.6 335.766 1198.59 341.463C1198.9 343.22 1198.8 344.984 1199.36 346.692C1199.73 347.792 1199.07 347.195 1198.57 346.671C1196.52 344.497 1194.59 342.388 1192.24 340.504C1186.08 335.573 1179.69 332.118 1172.04 330.006C1171.62 329.888 1159.84 327.519 1160.12 328.199C1161.13 330.669 1163.78 332.567 1165.43 334.569C1168.38 338.162 1171 341.64 1172.45 346.102C1173.82 350.321 1171.5 354.798 1170.48 358.817C1170.21 359.887 1170.14 363.299 1169.09 360.725C1167.46 356.752 1164.95 353.117 1162.87 349.358C1161.04 346.061 1159.7 342.584 1158.27 339.094C1157.36 336.861 1155.85 334.339 1155.53 331.912C1155.45 331.284 1155.28 330.391 1154.87 329.874C1154.8 329.78 1151.56 336.363 1151.41 336.682C1148.8 342.188 1146.01 348.5 1146.53 354.728C1146.67 356.334 1146.43 358.663 1146.93 360.172C1147.34 361.386 1147.92 362.57 1148.4 363.756C1148.58 364.205 1148.94 364.759 1148.99 365.242C1149.01 365.495 1148.45 365.171 1148.26 365.001C1145.04 362.133 1141.4 359.815 1137.81 357.436C1133.89 354.836 1130.04 352.175 1126.19 349.465C1123.95 347.881 1115.1 341.25 1120.01 348.697C1123.66 354.248 1128.29 358.985 1129.35 365.776C1129.72 368.156 1130.2 371.436 1129.33 373.807C1128.15 376.996 1126.66 371.872 1126.15 370.62C1126.01 370.273 1125.34 367.902 1124.84 367.989C1122.76 368.349 1122.01 372.953 1121.63 374.455C1121.28 375.835 1120.89 377.261 1120.84 378.684C1120.81 379.559 1119.28 378.95 1118.94 378.924C1114.01 378.542 1108.15 380.063 1103.54 381.753C1100.21 382.975 1097.7 384.69 1095.58 387.537C1093.86 389.837 1092.94 386.095 1092.33 384.596C1090.87 381.023 1089.74 377.912 1089.59 373.981C1089.51 371.736 1089.31 369.41 1090.32 367.363C1091.87 364.243 1089.04 371.699 1089.01 371.805C1087.76 375.732 1086.53 379.683 1086.49 383.836C1086.46 387.497 1087.42 390.994 1088.17 394.536C1088.45 395.843 1088.63 397.201 1089.03 398.479C1089.19 398.981 1090.03 400.256 1089.61 399.946L1233.6 345.19Z" stroke="#85AD95" stroke-width="3" stroke-linecap="round"/>
<path d="M1250.77 350.062C1250.64 348.747 1250.97 347.841 1251.51 346.613C1252.74 343.794 1253.4 340.838 1254.82 338.078C1257.02 333.823 1259.74 330.207 1263.49 327.257C1265.68 325.533 1263.99 330.294 1263.91 330.846C1263.43 333.968 1264.18 338.157 1265.79 340.745C1267.03 342.734 1268.65 344.327 1269.89 346.258C1271.78 349.199 1272.61 345.259 1272.92 343.493C1274.52 334.301 1274.22 324.022 1271.05 315.186C1270.19 312.775 1268.97 311.09 1266.78 309.732C1266.28 309.422 1263.34 307.852 1265.68 308.282C1268.91 308.876 1271.24 311.285 1273.03 313.917C1276.32 318.769 1278.03 324.734 1279.85 330.224C1280.41 331.917 1281.33 333.424 1281.65 335.195C1281.85 336.336 1282.14 335.498 1282.33 334.802C1283.11 331.916 1283.81 329.148 1284.99 326.375C1288.09 319.115 1292.08 313.052 1297.83 307.572C1298.15 307.266 1307.4 299.611 1307.47 300.342C1307.75 302.997 1306.32 305.921 1305.81 308.464C1304.91 313.027 1304.24 317.332 1305.08 321.948C1305.86 326.313 1310.03 329.159 1312.83 332.218C1313.57 333.033 1315.25 336.007 1314.96 333.24C1314.51 328.97 1315 324.582 1315.06 320.283C1315.11 316.513 1314.65 312.819 1314.25 309.067C1314 306.668 1314.15 303.729 1313.28 301.442C1313.05 300.85 1312.78 299.983 1312.89 299.334C1312.91 299.216 1318.87 303.488 1319.16 303.697C1324.07 307.312 1329.51 311.556 1331.99 317.289C1332.64 318.767 1333.95 320.706 1334.22 322.276C1334.43 323.538 1334.48 324.853 1334.62 326.128C1334.67 326.609 1334.62 327.264 1334.8 327.714C1334.9 327.95 1335.25 327.397 1335.33 327.157C1336.81 323.109 1338.92 319.342 1340.96 315.55C1343.19 311.404 1345.32 307.238 1347.43 303.032C1348.65 300.576 1353.31 290.548 1352.51 299.429C1351.92 306.049 1350.08 312.412 1352.36 318.895C1353.16 321.167 1354.28 324.287 1356.18 325.963C1358.72 328.216 1357.61 322.998 1357.47 321.653C1357.43 321.28 1356.9 318.871 1357.38 318.711C1359.38 318.046 1362.22 321.751 1363.26 322.894C1364.23 323.944 1365.25 325.013 1365.96 326.245C1366.4 327.002 1367.46 325.742 1367.75 325.556C1371.91 322.89 1377.79 321.46 1382.65 320.767C1386.17 320.266 1389.19 320.591 1392.41 322.097C1395 323.313 1394.05 319.58 1393.88 317.969C1393.48 314.129 1393 310.854 1391.27 307.323C1390.73 306.222 1390.21 305.082 1389.55 304.059C1387.93 302.621 1385.49 300.404 1387.5 301.836C1388.34 302.437 1388.99 303.208 1389.55 304.059C1390.21 304.648 1390.73 305.106 1390.76 305.128C1393.71 307.999 1396.66 310.898 1398.66 314.539C1400.42 317.748 1401.23 321.286 1402.24 324.763C1402.61 326.046 1403.1 327.324 1403.35 328.641C1403.43 329.021 1403.37 329.951 1403.42 330.222L1403.54 330.207C1403.48 330.331 1403.44 330.318 1403.42 330.222L1250.77 350.062Z" fill="#85AD95"/>
<path d="M1250.77 350.062C1250.64 348.747 1250.97 347.841 1251.51 346.613C1252.74 343.794 1253.4 340.838 1254.82 338.078C1257.02 333.823 1259.74 330.207 1263.49 327.257C1265.68 325.533 1263.99 330.294 1263.91 330.846C1263.43 333.968 1264.18 338.157 1265.79 340.745C1267.03 342.734 1268.65 344.327 1269.89 346.258C1271.78 349.199 1272.61 345.259 1272.92 343.493C1274.52 334.301 1274.22 324.022 1271.05 315.186C1270.19 312.775 1268.97 311.09 1266.78 309.732C1266.28 309.422 1263.34 307.852 1265.68 308.282C1268.91 308.876 1271.24 311.285 1273.03 313.917C1276.32 318.769 1278.03 324.734 1279.85 330.224C1280.41 331.917 1281.33 333.424 1281.65 335.195C1281.85 336.336 1282.14 335.498 1282.33 334.802C1283.11 331.916 1283.81 329.148 1284.99 326.375C1288.09 319.115 1292.08 313.052 1297.83 307.572C1298.15 307.266 1307.4 299.611 1307.47 300.342C1307.75 302.997 1306.32 305.921 1305.81 308.464C1304.91 313.027 1304.24 317.332 1305.08 321.948C1305.86 326.313 1310.03 329.159 1312.83 332.218C1313.57 333.033 1315.25 336.007 1314.96 333.24C1314.51 328.97 1315 324.582 1315.06 320.283C1315.11 316.513 1314.65 312.819 1314.25 309.067C1314 306.668 1314.15 303.729 1313.28 301.442C1313.05 300.85 1312.78 299.983 1312.89 299.334C1312.91 299.216 1318.87 303.488 1319.16 303.697C1324.07 307.312 1329.51 311.556 1331.99 317.289C1332.64 318.767 1333.95 320.706 1334.22 322.276C1334.43 323.538 1334.48 324.853 1334.62 326.128C1334.67 326.609 1334.62 327.264 1334.8 327.714C1334.9 327.95 1335.25 327.397 1335.33 327.157C1336.81 323.109 1338.92 319.342 1340.96 315.55C1343.19 311.404 1345.32 307.238 1347.43 303.032C1348.65 300.576 1353.31 290.548 1352.51 299.429C1351.92 306.049 1350.08 312.412 1352.36 318.895C1353.16 321.167 1354.28 324.287 1356.18 325.963C1358.72 328.216 1357.61 322.998 1357.47 321.653C1357.43 321.28 1356.9 318.871 1357.38 318.711C1359.38 318.046 1362.22 321.751 1363.26 322.894C1364.23 323.944 1365.25 325.013 1365.96 326.245C1366.4 327.002 1367.46 325.742 1367.75 325.556C1371.91 322.89 1377.79 321.46 1382.65 320.767C1386.17 320.266 1389.19 320.591 1392.41 322.097C1395 323.313 1394.05 319.58 1393.88 317.969C1393.48 314.129 1393 310.854 1391.27 307.323C1390.28 305.306 1389.36 303.16 1387.5 301.836C1384.66 299.818 1390.68 305.05 1390.76 305.128C1393.71 307.999 1396.66 310.898 1398.66 314.539C1400.42 317.748 1401.23 321.286 1402.24 324.763C1402.61 326.046 1403.1 327.324 1403.35 328.641C1403.45 329.157 1403.31 330.681 1403.54 330.207L1250.77 350.062Z" stroke="#85AD95" stroke-width="3" stroke-linecap="round"/>
<ellipse cx="583.599" cy="333.23" rx="583.599" ry="333.23" transform="matrix(0.984015 0.178084 -0.0718125 0.997418 -396.14 298.785)" fill="url(#paint1_linear_22_13517)"/>
<ellipse cx="587.667" cy="332.276" rx="587.667" ry="332.276" transform="matrix(0.972531 -0.232773 0.0947916 0.995497 642 483.586)" fill="url(#paint2_linear_22_13517)"/>
<ellipse cx="587.667" cy="332.276" rx="587.667" ry="332.276" transform="matrix(0.972531 -0.232773 0.0947916 0.995497 956 734.586)" fill="#F6F2ED"/>
<ellipse cx="430.987" cy="249.441" rx="430.987" ry="249.441" transform="matrix(0.999999 0.00135279 -0.000538184 1 304.268 438.303)" fill="url(#paint3_linear_22_13517)"/>
<ellipse cx="316.788" cy="183.346" rx="316.788" ry="183.346" transform="matrix(0.973517 0.228616 -0.227823 0.973703 153.541 491)" fill="url(#paint4_linear_22_13517)"/>
<ellipse cx="316.788" cy="183.346" rx="316.788" ry="183.346" transform="matrix(1 0 0.000814597 1 525 703)" fill="url(#paint5_linear_22_13517)"/>
<ellipse cx="316.788" cy="183.346" rx="316.788" ry="183.346" transform="matrix(0.965926 0.258819 -0.258032 0.966136 -67.3816 670)" fill="url(#paint6_linear_22_13517)"/>
<ellipse cx="316.788" cy="183.346" rx="316.788" ry="183.346" transform="matrix(0.965926 -0.258819 0.259606 0.965715 828 668.981)" fill="url(#paint7_linear_22_13517)"/>
<ellipse cx="290.449" cy="183.346" rx="290.449" ry="183.346" transform="matrix(0.997552 -0.0699237 0.0707363 0.997495 684 819.619)" fill="url(#paint8_linear_22_13517)"/>
<path d="M1007 349.118C1008.34 345.274 1011.48 342.034 1013.9 338.821C1018.17 333.159 1025.19 328.314 1032.28 327.357C1039.03 326.446 1046.03 327.764 1050.28 333.531C1054.27 338.939 1055.27 346.918 1050.85 352.506C1049.03 354.813 1044.14 356.424 1042.15 353.431C1038.44 347.861 1043.49 342.34 1046.95 337.865C1051.48 332.004 1056.8 326.801 1063.11 322.912C1066.09 321.068 1070 318.707 1073.59 318.4C1077.29 318.082 1081.07 319.88 1084.5 321.073" stroke="black" stroke-width="4" stroke-linecap="round"/>
<circle cx="910" cy="286" r="26" fill="#F6F2ED"/>
<circle cx="4" cy="4" r="4" transform="matrix(1 0 0 -1 928 415)" fill="#F6F2ED"/>
<circle cx="9" cy="9" r="9" transform="matrix(1 0 0 -1 939 409)" fill="#F6F2ED"/>
<ellipse cx="15" cy="15.5" rx="15" ry="15.5" transform="matrix(1 0 0 -1 495 433)" fill="#F6F2ED"/>
<ellipse cx="21" cy="21.5" rx="21" ry="21.5" transform="matrix(1 0 0 -1 462 424)" fill="#85AD95"/>
<circle cx="10.5" cy="10.5" r="10.5" transform="matrix(1 0 0 -1 1295 268)" fill="#85AD95"/>
<circle cx="18.5" cy="18.5" r="18.5" transform="matrix(1 0 0 -1 1258 310)" fill="#85AD95"/>
<circle cx="916" cy="284" r="24" stroke="black" stroke-width="4"/>
<path d="M517 411.5C517 403.982 511.118 398 504 398C496.882 398 491 403.982 491 411.5C491 419.018 496.882 425 504 425C511.118 425 517 419.018 517 411.5Z" stroke="black" stroke-width="4"/>
<path d="M390.5 353.826C393.185 357.889 396.553 363.419 400.975 365.861C407.262 369.333 414.208 369.873 421.201 369.873C428.932 369.873 436.642 368.737 443.062 364.004C448.015 360.351 452.072 355.93 453.351 349.703C453.97 346.687 455.198 340.59 452.014 338.447C450.277 337.278 447.972 337.633 446.052 336.961C445.424 336.742 442.36 336.341 441.724 336.85C440.846 337.553 440.313 340.289 440.313 341.438C440.313 345.677 447.392 345.843 450.305 345.802C457.451 345.702 461.306 342.687 465.943 337.482C470.823 332.004 474.497 326.75 475.23 319.317C475.387 317.727 475.724 316.001 474.914 314.544C474.677 314.118 474.413 313.518 474.413 313.04" stroke="#85AD95" stroke-width="3" stroke-linecap="round"/>
<path d="M601.218 258.41C600.662 259.362 599.393 260.989 599.187 262.117C597.72 262.103 596.447 262.017 594.982 261.529C592.451 260.685 589.965 260.418 587.292 260.418C586.782 260.418 582.376 260.368 583.075 261.222C583.668 261.947 584.269 262.694 584.823 263.442C585.965 264.984 587.522 266.298 588.792 267.742C589.586 268.644 590.78 269.834 591.816 270.435C592.137 270.621 593.368 270.666 593.434 271.061C593.531 271.64 593.073 272.895 592.595 273.223C592.247 273.462 592.479 273.815 592.359 274.144C592.184 274.625 591.679 275.149 591.438 275.632C590.714 277.08 586.743 286.402 588.036 286.771C590.402 287.447 592.01 284.004 593.328 282.743C594.291 281.822 595.187 281.182 595.785 279.932C596.26 278.939 597.11 277.913 597.781 277.038C598.613 275.952 598.836 276.634 599.718 277.026C600.789 277.502 602.039 277.62 603.179 278.066C605.73 279.064 608.31 280.343 610.656 281.763C612.266 282.737 613.531 283.381 615.393 283.381C616.618 283.381 615.365 281.007 615.346 280.286C615.293 278.287 613.49 276.133 612.818 274.286C612.502 273.416 611.653 272.325 613.113 272.325C614.301 272.325 615.539 271.029 616.716 270.789C617.716 270.586 624.507 269.196 623.685 267.553C622.489 265.161 619.364 264.938 617.153 264.257C616.72 264.124 612.436 263.542 612.369 262.97C612.264 262.078 612.233 260.863 612.416 259.993C612.861 257.882 612.893 255.699 612.782 253.544C612.715 252.237 611.484 250 610.03 250C608.045 250 606.737 251.638 605.353 252.977C603.628 254.644 602.433 256.331 601.218 258.41Z" fill="white"/>
<path d="M599.187 262.119C599.392 260.992 600.662 259.363 601.218 258.41C602.433 256.331 603.628 254.644 605.353 252.977C606.737 251.638 608.045 250 610.03 250C611.484 250 612.715 252.237 612.782 253.544C612.893 255.699 612.861 257.882 612.416 259.993C612.233 260.863 612.264 262.078 612.369 262.97C612.436 263.542 616.72 264.124 617.153 264.257C619.364 264.938 622.489 265.161 623.685 267.553C624.507 269.196 617.716 270.586 616.716 270.789C615.539 271.029 614.301 272.325 613.113 272.325C611.653 272.325 612.502 273.416 612.818 274.286C613.49 276.133 615.293 278.287 615.346 280.286C615.365 281.007 616.618 283.381 615.393 283.381C613.531 283.381 612.266 282.737 610.656 281.763C608.31 280.343 605.73 279.064 603.179 278.066C602.039 277.62 600.789 277.502 599.718 277.026C598.836 276.634 598.613 275.952 597.781 277.038C597.11 277.913 596.26 278.939 595.785 279.932C595.187 281.182 594.291 281.822 593.328 282.743C592.01 284.004 590.402 287.447 588.036 286.771C586.743 286.402 590.714 277.08 591.438 275.632C591.679 275.149 592.184 274.625 592.359 274.144C592.479 273.815 592.247 273.462 592.595 273.223C593.073 272.895 593.531 271.64 593.434 271.061C593.368 270.666 592.137 270.621 591.816 270.435C590.78 269.834 589.586 268.644 588.792 267.742C587.522 266.298 585.965 264.984 584.823 263.442C584.269 262.694 583.668 261.947 583.075 261.222C582.376 260.368 586.782 260.418 587.292 260.418C589.965 260.418 592.451 260.685 594.982 261.529C596.655 262.087 598.077 262.119 599.824 262.119" stroke="black" stroke-width="3" stroke-linecap="round"/>
<path d="M295.419 322.451C296.958 322.35 298.632 322.513 300.174 322.694C304.617 323.213 309.216 322.462 312.721 319.607C314.86 317.865 316.093 316.611 315.898 313.648C315.645 309.806 308.952 308.391 305.765 308.227C305.231 308.199 302.016 308.805 301.97 308.1C301.898 307.009 302.171 305.609 302.269 304.511C302.513 301.786 302.083 298.968 301.904 296.246C301.811 294.845 302.088 292.633 301.076 291.502C299.427 289.658 296.702 288.584 294.264 288.639C288.412 288.769 285.478 291.941 284.68 297.578C284.259 300.549 284.037 303.796 286.815 305.607C287.786 306.241 288.933 306.796 289.762 307.614C290.131 307.978 290.964 307.991 291.206 308.451C291.743 309.473 286.723 314.769 285.97 315.677C282.004 320.456 278.505 325.636 273.958 329.911C272.864 330.94 272.059 332.268 271.179 333.485C268.618 337.031 264.997 340.012 261.659 342.797C260.997 343.349 260.302 343.966 259.586 344.44C258.786 344.97 258.873 344.188 258.45 343.444C256.902 340.728 255.967 339.512 252.59 339.368C248.099 339.177 241.678 340.435 239.05 344.542C235.607 349.922 241.565 354.447 246.629 354.553C249.094 354.605 251.44 354.005 253.853 353.741C254.497 353.67 259.077 351.856 258.344 352.692C254.116 357.516 259.139 363.574 264.784 364.067C269.379 364.467 272.091 358.496 271.847 354.778C271.777 353.717 271.351 352.098 271.824 351.111C272.709 349.262 274.016 347.633 275.361 346.099C276.538 344.756 277.796 343.543 279.165 342.438C280.896 341.041 282.292 339.336 284.018 337.836C286.952 335.285 287.984 331.272 290.459 328.449C291.684 327.051 292.405 325.166 294.188 324.238C294.68 323.981 296.628 322.452 296.817 322.002" stroke="black" stroke-width="3" stroke-linecap="round"/>
<path d="M1270.01 290.583C1270.01 282.435 1269.24 270.131 1279.73 268.145C1287.78 266.623 1300.08 277.434 1292.78 284.924C1290.05 287.732 1288.2 288.186 1284.53 288.186C1279.34 288.186 1276.81 285.787 1279.47 280.995C1281.25 277.784 1286.15 278.598 1289.19 278.598" stroke="black" stroke-width="3" stroke-linecap="round"/>
<path d="M1119.88 275.183C1119.64 273.057 1116.9 270.755 1115.14 269.875C1113.9 269.253 1113.02 268.251 1111.64 268.112C1110.51 268 1109.56 267.578 1108.52 267.177C1106.99 266.579 1105.53 266.568 1103.91 266.568C1100.54 266.568 1110.54 265.001 1113.92 265.001C1118.66 265.001 1121.08 265.67 1124.73 268.526C1125.41 269.052 1127.47 272.381 1128.32 271.376C1129.87 269.545 1130.39 266.515 1131.02 264.305C1132.52 259.051 1134.26 254.185 1137.24 249.598C1140.05 245.279 1144.25 243.125 1148.77 240.852C1150.24 240.116 1152.83 238.372 1154.65 238.372C1155.4 238.372 1153.03 241.029 1152.75 241.374C1149.28 245.714 1146.52 251.367 1144.14 256.364C1143.17 258.401 1142.85 261.16 1143.01 263.413C1143.13 265.187 1144.15 266.503 1144.51 268.134C1144.63 268.656 1145.16 271.704 1146.03 271.093C1147.45 270.094 1148.63 267.673 1149.73 266.307C1151.42 264.206 1153.63 262.508 1155.69 260.78C1156.55 260.063 1159.43 257.978 1160.78 258.366C1161.63 258.607 1160.22 262.184 1160.22 262.673C1160.22 265.073 1159.11 270.941 1161 272.833" stroke="#85AD95" stroke-width="3" stroke-linecap="round"/>
<path d="M816 380.62C817.571 377.568 823.129 369.987 819.705 366.278C818.969 365.481 818.969 364.619 818.566 363.711C818.489 363.538 817.934 363.468 818.235 363.484C819.301 363.54 820.297 363.929 821.215 364.457C825.885 367.142 831.36 372.268 831.998 378.013C832.034 378.337 832.097 380.545 832.205 380.351C833.276 378.423 833.325 374.881 833.633 372.797C834.274 368.46 834.641 364.084 835.372 359.759C837.642 346.324 852.418 339.496 863.808 335.42C864.195 335.281 867.136 334.805 866.126 335.089C862.394 336.138 860.129 340.547 858.261 343.616C854.33 350.077 851.763 356.126 851.763 363.691C851.763 367.178 852.411 370.341 853.253 373.708C853.402 374.304 855.3 380.484 856.606 379.792C857.755 379.184 857.452 375.183 857.558 374.246C857.875 371.438 858.413 368.537 857.91 365.719C857.506 363.461 854.324 359.813 858.365 360.172C861.579 360.458 864.939 361.654 867.181 364.063C868.869 365.876 869.194 368.367 870.203 370.521C870.462 371.073 870.62 375.881 871.548 375.55C873.766 374.758 875.812 370.776 877.012 368.948C878.847 366.153 880.333 363.822 883.055 361.828C883.512 361.494 886.489 359.502 887.277 360.586C887.413 360.773 885.291 363.624 885.291 364.312C885.291 366.756 886.935 368.662 887.898 370.769C888.158 371.336 888.657 372.778 889.181 373.087C890.455 373.836 891.907 374.228 893.114 375.032" stroke="#85AD95" stroke-width="3" stroke-linecap="round"/>
<path d="M117.077 361C117.077 357.582 115.351 355.622 112.444 353.833C111.006 352.948 109.674 352.002 108.1 351.407C107.51 351.185 104.782 350.071 106.76 350.321C108.958 350.599 111.005 351.367 113.113 352.005C114.642 352.467 116.339 352.668 117.801 353.326C120.94 354.739 123.091 358.159 126.127 359.444C126.422 359.569 127.193 360.431 127.503 360.276C128.01 360.023 127.961 358.907 128.009 358.503C128.401 355.254 128.814 352.17 129.892 349.054C131.417 344.645 133.184 339.773 135.648 335.769C136.698 334.062 139.466 332.175 141.512 332.004C141.649 331.993 143.083 331.387 142.924 331.896C141.84 335.364 139.62 338.42 139.304 342.14C138.758 348.547 143.143 354.191 145.856 359.516C146.028 359.855 148.276 363.688 148.354 362.557C148.757 356.709 153.553 352.606 154.797 347.063C154.927 346.487 154.544 342.468 155.195 342.43C158.68 342.225 160.739 347.652 161.567 350.502C162.132 352.449 161.458 354.477 161.386 356.367C161.365 356.899 161.089 357.561 161.205 357.417C163.051 355.108 163.788 352.033 165.874 349.815C168.886 346.612 171.871 345.688 176.047 345.688C176.193 345.688 177.083 345.608 176.861 345.941C175.534 347.932 172.251 349.333 170.399 350.792C169.568 351.447 167.587 352.647 167.141 353.742C166.586 355.105 166.924 357.076 166.924 358.503C166.924 361.181 166.924 363.86 166.924 366.539" stroke="#85AD95" stroke-width="3" stroke-linecap="round"/>
<path d="M191.478 327.217C192.202 325.407 195.087 323.789 196.517 322.41C198.669 320.335 200.91 317.827 202.395 315.229C204.202 312.067 206.306 303.096 199.528 304.399C196.601 304.962 195.589 308.873 196.517 311.291C199.346 318.667 210.662 319.072 216.873 316.706C223.029 314.36 233.696 309.843 233.696 302.199" stroke="white" stroke-width="3" stroke-linecap="round"/>
<path d="M1373.78 246.03C1373.41 246.925 1373.42 248.021 1373.38 249.002C1373.27 249.047 1373.16 249.125 1373.08 249.198C1372.58 249.677 1372.04 250.107 1371.52 250.563C1371.21 250.841 1367.71 253.694 1368.02 254.086C1368.34 254.487 1369.35 254.669 1369.82 254.678C1370.77 254.697 1371.66 254.518 1372.58 254.276C1372.64 254.26 1373.58 253.942 1373.64 254.16C1373.81 254.75 1373.65 255.681 1373.65 256.281C1373.65 257.759 1373.42 262.156 1373.73 260.713C1373.81 260.389 1374.04 260.023 1374.18 259.703C1374.61 258.694 1375.11 257.721 1375.62 256.752C1375.89 256.238 1376.14 255.714 1376.4 255.197C1376.47 255.055 1376.61 254.781 1376.75 254.699C1377.1 254.506 1377.75 254.884 1378.06 254.964C1379.52 255.331 1380.92 255.892 1382.44 256.006C1382.65 256.022 1383.73 256.055 1383.8 255.773C1383.83 255.602 1383.56 255.202 1383.48 255.054C1383.19 254.529 1382.76 254.105 1382.36 253.668C1382.07 253.357 1381.36 252.614 1381.36 252.16C1381.36 251.805 1381.61 251.637 1381.79 251.378C1381.95 251.158 1382.02 250.911 1382.13 250.669C1382.29 250.316 1382.6 250.019 1382.8 249.685C1383.2 249.011 1383.98 248.151 1384 247.326C1384.01 246.668 1383.63 246.734 1383.06 246.797C1381.69 246.947 1380.52 247.403 1379.24 247.855C1378.89 247.979 1378.52 248.099 1378.21 247.918C1377.93 247.759 1377.86 247.418 1377.64 247.194C1377.06 246.609 1376.62 245.946 1376 245.401C1375.17 244.677 1374.22 244.962 1373.78 246.03Z" fill="white"/>
<path d="M1373.36 249.442C1373.43 248.36 1373.35 247.062 1373.78 246.03C1374.22 244.962 1375.17 244.677 1376 245.401C1376.62 245.946 1377.06 246.609 1377.64 247.194C1377.86 247.418 1377.93 247.759 1378.21 247.918C1378.52 248.099 1378.89 247.979 1379.24 247.855C1380.52 247.403 1381.69 246.947 1383.06 246.797C1383.63 246.734 1384.01 246.668 1384 247.326C1383.98 248.151 1383.2 249.011 1382.8 249.685C1382.6 250.019 1382.29 250.316 1382.13 250.669C1382.02 250.911 1381.95 251.158 1381.79 251.378C1381.61 251.637 1381.36 251.805 1381.36 252.16C1381.36 252.614 1382.07 253.357 1382.36 253.668C1382.76 254.105 1383.19 254.529 1383.48 255.054C1383.56 255.202 1383.83 255.602 1383.8 255.773C1383.73 256.055 1382.65 256.022 1382.44 256.006C1380.92 255.892 1379.52 255.331 1378.06 254.964C1377.75 254.884 1377.1 254.506 1376.75 254.699C1376.61 254.781 1376.47 255.055 1376.4 255.197C1376.14 255.714 1375.89 256.238 1375.62 256.752C1375.11 257.721 1374.61 258.694 1374.18 259.703C1374.04 260.023 1373.81 260.389 1373.73 260.713C1373.42 262.156 1373.65 257.759 1373.65 256.281C1373.65 255.681 1373.81 254.75 1373.64 254.16C1373.58 253.942 1372.64 254.26 1372.58 254.276C1371.66 254.518 1370.77 254.697 1369.82 254.678C1369.35 254.669 1368.34 254.487 1368.02 254.086C1367.71 253.694 1371.21 250.841 1371.52 250.563C1372.04 250.107 1372.58 249.677 1373.08 249.198C1373.2 249.087 1373.4 248.966 1373.55 248.966" stroke="white" stroke-width="2" stroke-linecap="round"/>
</g>
<defs>
<linearGradient id="paint0_linear_22_13517" x1="720" y1="0" x2="720" y2="1024" gradientUnits="userSpaceOnUse">
<stop stop-color="#86AD95"/>
<stop offset="1" stop-color="#F6F2ED"/>
</linearGradient>
<linearGradient id="paint1_linear_22_13517" x1="583.599" y1="-1.52546e-06" x2="568.985" y2="414.317" gradientUnits="userSpaceOnUse">
<stop stop-color="#DEF1F2"/>
<stop offset="1" stop-color="#F6F2ED"/>
</linearGradient>
<linearGradient id="paint2_linear_22_13517" x1="587.666" y1="-1.52109e-06" x2="573.236" y2="413.141" gradientUnits="userSpaceOnUse">
<stop stop-color="#DEF1F2"/>
<stop offset="1" stop-color="#F6F2ED"/>
</linearGradient>
<linearGradient id="paint3_linear_22_13517" x1="430.987" y1="-1.14189e-06" x2="419.898" y2="310.129" gradientUnits="userSpaceOnUse">
<stop stop-color="#DEF1F2"/>
<stop offset="1" stop-color="#F6F2ED"/>
</linearGradient>
<linearGradient id="paint4_linear_22_13517" x1="316.787" y1="-8.39323e-07" x2="308.637" y2="227.953" gradientUnits="userSpaceOnUse">
<stop stop-color="#DEF1F2"/>
<stop offset="1" stop-color="#F6F2ED"/>
</linearGradient>
<linearGradient id="paint5_linear_22_13517" x1="316.787" y1="-8.39323e-07" x2="308.637" y2="227.953" gradientUnits="userSpaceOnUse">
<stop stop-color="#DEF1F2"/>
<stop offset="1" stop-color="#F6F2ED"/>
</linearGradient>
<linearGradient id="paint6_linear_22_13517" x1="316.787" y1="-8.39323e-07" x2="308.637" y2="227.953" gradientUnits="userSpaceOnUse">
<stop stop-color="#DEF1F2"/>
<stop offset="1" stop-color="#F6F2ED"/>
</linearGradient>
<linearGradient id="paint7_linear_22_13517" x1="316.787" y1="-8.39323e-07" x2="308.637" y2="227.953" gradientUnits="userSpaceOnUse">
<stop stop-color="#DEF1F2"/>
<stop offset="1" stop-color="#F6F2ED"/>
</linearGradient>
<linearGradient id="paint8_linear_22_13517" x1="290.449" y1="-8.39323e-07" x2="281.562" y2="227.898" gradientUnits="userSpaceOnUse">
<stop stop-color="#DEF1F2"/>
<stop offset="1" stop-color="#F6F2ED"/>
</linearGradient>
<clipPath id="clip0_22_13517">
<rect width="1440" height="1024" fill="white"/>
</clipPath>
</defs>
</svg>
